<svg width="30" height="22" viewBox="0 0 30 22" fill="none" xmlns="http://www.w3.org/2000/svg">
<path d="M0 0V1.1455V20.3545V21.5H30V20.3545V1.1455V0H0ZM18.3125 11.032L15.5895 13.768C15.2585 14.0755 14.7405 14.075 14.4235 13.781L11.687 11.032L11.711 11.0085L1.8235 1H28.183L18.2885 11.009L18.3125 11.032ZM10.262 11.0165L1 19.9275V1.7115L10.262 11.0165ZM10.967 11.725L13.7285 14.4995C14.083 14.83 14.538 14.996 14.995 14.996C15.4565 14.996 15.92 14.8265 16.2855 14.486L19.0335 11.725L28.152 20.5H1.843L10.967 11.725ZM19.7385 11.017L29 1.711V19.9275L19.7385 11.017Z" fill="#6AB142"/>
</svg>
