<svg width="31" height="30" viewBox="0 0 31 30" fill="none" xmlns="http://www.w3.org/2000/svg">
<path d="M4.11864 0C3.00002 0 1.98305 0.406799 1.22034 1.16951C0.406799 1.98305 0 2.99996 0 4.06775C0 5.18638 0.457627 6.20335 1.22034 6.96606C1.98305 7.72877 3.05085 8.1864 4.06781 8.13557C4.06781 8.13557 4.11864 8.13557 4.16953 8.13557C5.1865 8.13557 6.15258 7.72877 6.91529 6.96606C7.678 6.20335 8.13563 5.18638 8.13563 4.06775C8.18645 2.99996 7.72883 1.98299 6.96612 1.22028C6.20341 0.40674 5.18644 0 4.11864 0ZM6.20341 6.25423C5.64406 6.81357 4.88135 7.16949 4.06781 7.11866C3.3051 7.11866 2.49156 6.81357 1.93222 6.25423C1.32205 5.69489 1.01697 4.88135 1.01697 4.06781C1.01697 3.25427 1.32205 2.49156 1.93222 1.88139C2.49156 1.32205 3.25428 1.01697 4.11864 1.01697C4.88135 1.01697 5.64406 1.32205 6.20341 1.88139C6.81357 2.49156 7.11866 3.25427 7.11866 4.06781C7.11866 4.88135 6.81357 5.69489 6.20341 6.25423Z" fill="#6AB142"/>
<path d="M5.59324 0H1.47459C0.661056 0 0 0.660996 0 1.52542V19.322C0 20.1356 0.711884 20.8475 1.52542 20.8475H5.59324C6.40678 20.8475 7.11866 20.1356 7.11866 19.3729V1.52542C7.11866 0.711824 6.40678 0 5.59324 0ZM6.10169 19.3729C6.10169 19.6271 5.84743 19.8305 5.59324 19.8305H1.52542C1.27117 19.8305 1.01697 19.5762 1.01697 19.322V1.52542C1.01697 1.27117 1.22034 1.01697 1.47459 1.01697H5.59324C5.84749 1.01697 6.10169 1.27122 6.10169 1.52542V19.3729Z" transform="translate(0.508301 9.15254)" fill="#6AB142"/>
<path d="M13.2712 0H12.2034C10.2203 0 8.339 0.864427 7.11866 2.23731V1.52542C7.11866 1.01697 6.61021 0.508455 6.10169 0.508455H1.01697C0.559342 0.508455 0 0.915254 0 1.47454V20.4406C0 20.9999 0.559342 21.3559 1.01697 21.3559H6.6102C7.06783 21.3559 7.62717 20.9999 7.62717 20.4406V9.45756C7.62717 7.7796 8.84751 6.45754 10.4238 6.45754C11.2373 6.45754 12 6.76263 12.5594 7.32197C13.0678 7.7796 13.2712 8.49148 13.2712 9.40673V20.3389C13.2712 20.8474 13.7797 21.3559 14.2882 21.3559H19.3729C19.8814 21.3559 20.3899 20.8475 20.3899 20.3389V7.22032C20.3898 3.15256 17.2882 0 13.2712 0ZM19.3729 20.2881L19.322 20.3389H14.339L14.2881 9.40679C14.2881 8.18646 13.9831 7.2712 13.3221 6.61021C12.5594 5.84749 11.5424 5.44069 10.4746 5.44069C8.339 5.49152 6.66103 7.22037 6.66103 9.45762V20.3389H1.0678V1.52542H6.10169L6.15252 1.57625V4.77964L7.5254 3.40676L7.57623 3.35593C8.59319 1.93222 10.3728 1.01697 12.2542 1.01697H13.322C16.7288 1.01697 19.3729 3.76273 19.3729 7.22037V20.2881Z" transform="translate(10.1187 8.64403)" fill="#6AB142"/>
</svg>
