<svg width="22" height="32" viewBox="0 0 22 32" fill="none" xmlns="http://www.w3.org/2000/svg">
<path d="M4.01554 0C1.80183 0 0 1.8356 0 4.0908C0 6.346 1.80183 8.1816 4.01554 8.1816C6.22925 8.1816 8.03108 6.346 8.03108 4.0908C8.03108 1.8356 6.22925 0 4.01554 0ZM4.01554 7.0128C2.43399 7.0128 1.1473 5.70199 1.1473 4.0908C1.1473 2.47961 2.43399 1.1688 4.01554 1.1688C5.59709 1.1688 6.88378 2.47961 6.88378 4.0908C6.88378 5.70199 5.59709 7.0128 4.01554 7.0128Z" transform="translate(7.0874 7.0128)" fill="#6AB142"/>
<path d="M18.7798 3.28258C16.702 1.16588 13.9393 0 11.0011 0C8.06231 0 5.3002 1.16588 3.22244 3.28258C-0.622725 7.19923 -1.10057 14.5685 2.18758 19.0333L11.0011 32L19.8015 19.0514C23.1028 14.5685 22.625 7.19923 18.7798 3.28258ZM18.871 18.3683L11.0011 29.9464L3.11861 18.3502C0.136212 14.2991 0.56358 7.64395 4.03415 4.10892C5.89507 2.21312 8.36921 1.1688 11.0011 1.1688C13.633 1.1688 16.1072 2.21312 17.9686 4.10892C21.4392 7.64395 21.8666 14.2991 18.871 18.3683Z" fill="#6AB142"/>
</svg>
