<svg width="23" height="24" viewBox="0 0 23 24" fill="none" xmlns="http://www.w3.org/2000/svg">
<path d="M0.206657 9.86054C-0.0688856 10.1261 -0.0688856 10.552 0.206657 10.8175L3.92908 14.405C4.06425 14.5353 4.24621 14.6054 4.42298 14.6054C4.59974 14.6054 4.7817 14.5403 4.91687 14.405L8.6393 10.8175C8.91484 10.552 8.91484 10.1261 8.6393 9.86054C8.36376 9.59499 7.92185 9.59499 7.6463 9.86054L5.12483 12.2906V0.676409C5.12483 0.300626 4.8129 0 4.42298 0C4.03306 0 3.72112 0.300626 3.72112 0.676409V12.2906L1.19965 9.86054C0.924107 9.59499 0.477 9.59499 0.206657 9.86054Z" transform="translate(7.07715)" fill="#6AB142"/>
<path d="M22.974 9.05887L20.5305 0.541127C20.4733 0.34572 20.333 0.190397 20.1458 0.105219L20.0782 0.075157C19.9846 0.0350735 19.8858 0.0150315 19.7871 0.0150315H15.3836C14.9937 0.0150315 14.6817 0.315657 14.6817 0.69144C14.6817 1.06722 14.9937 1.36785 15.3836 1.36785H19.314L21.3779 8.57286H15.9191C15.5292 8.57286 15.2172 8.87349 15.2172 9.24927V9.86054C15.2172 10.7574 14.4634 11.4839 13.5328 11.4839H9.24887C8.31826 11.4839 7.56442 10.7574 7.56442 9.86054V9.24927C7.56442 8.87349 7.25249 8.57286 6.86257 8.57286H1.61686L3.69123 1.35282H7.62161C8.01153 1.35282 8.32346 1.05219 8.32346 0.67641C8.32346 0.300627 8.01153 0 7.62161 0H3.21293C3.11415 0 3.01537 0.020042 2.92179 0.0601255L2.8542 0.0901877C2.66704 0.175365 2.52147 0.330689 2.46948 0.526096L0.0259946 9.04384C0.0103978 9.10397 0 9.16409 0 9.22422V12.7766C0 15.4672 2.27193 17.6568 5.06374 17.6568H17.9363C20.7281 17.6568 23 15.4672 23 12.7766V9.23925C23 9.17411 22.9948 9.11399 22.974 9.05887ZM21.5963 12.7766C21.5963 14.7207 19.9534 16.304 17.9363 16.304H5.06374C3.04656 16.304 1.40371 14.7207 1.40371 12.7766V9.92568H6.17111C6.2075 11.534 7.58002 12.8317 9.25927 12.8317H13.5432C15.2224 12.8317 16.5949 11.534 16.6313 9.92568H21.6067V12.7766H21.5963Z" transform="translate(0 6.34326)" fill="#6AB142"/>
</svg>
