<svg width="428" height="352" viewBox="0 0 428 352" fill="none" xmlns="http://www.w3.org/2000/svg">
<path opacity="0.2" d="M379.171 189.451C379.171 256.641 328.137 296.624 275.45 330.328C246.02 349.053 231.25 321.517 193.774 321.517C146.047 321.517 133.702 342.004 100.414 312.925C60.513 278.119 0 246.397 0 189.451C0 129.532 50.2622 106.181 93.6904 71.4849C126.096 45.6005 144.834 0 189.585 0C255.058 0 294.96 39.8729 329.019 90.2097C349.52 120.5 379.171 150.239 379.171 189.451Z" fill="#6B77A2"/>
<path opacity="0.2" d="M258.811 296.533C206.344 338.499 145.391 326.383 88.4047 309.09C56.6602 299.397 69.5564 271.42 47.8423 244.214C20.0658 209.518 -3.08122 213.373 0.335724 170.966C4.30379 120.409 -5.94705 56.6346 38.5835 21.0574C85.4287 -16.3923 132.825 5.5268 185.292 15.44C224.421 22.8198 270.936 7.95002 296.838 40.4431C334.866 88.0263 326.93 141.888 307.31 198.062C295.516 231.877 289.564 271.97 258.811 296.533Z" transform="translate(89.2769 26.9663)" fill="#6B77A2"/>
<path d="M313.918 0H60.8437L0 183.724H257.153L313.918 0Z" transform="translate(114.082 97.5895)" fill="#A6D389"/>
<path d="M292.755 0H58.8596L0 177.445H237.864L292.755 0Z" transform="translate(124.443 103.868)" fill="#354E72"/>
<path d="M265.75 0H56.104L0 169.185H213.394L265.75 0Z" transform="translate(133.922 112.129)" fill="white"/>
<path d="M210.087 20.2669H0L5.95209 0H216.37L210.087 20.2669Z" transform="translate(183.302 112.129)" fill="#A6D389"/>
<path d="M65.1424 0H23.2573L0 82.6096H40.342L65.1424 0Z" transform="translate(177.02 144.181)" fill="#6AB142"/>
<path d="M66.4651 0H4.51919L0 10.2436H63.0482L66.4651 0Z" transform="translate(321.303 117.416)" fill="white"/>
<path d="M66.4651 0H4.51916L0 10.2436H63.0481L66.4651 0Z" transform="translate(301.684 171.718)" fill="#A6D389"/>
<path d="M66.4651 0H4.40896L0 10.2436H62.9379L66.4651 0Z" transform="translate(295.841 196.721)" fill="#6AB142"/>
<path d="M105.374 0H7.16456L0 19.4959H99.9732L105.374 0Z" transform="translate(269.277 142.309)" fill="#36436B"/>
<path d="M8.92815 17.8437H327.806C332.656 17.8437 336.734 13.8784 336.734 8.92185C336.734 4.07542 332.766 0 327.806 0H8.92815C4.07829 0 0 3.96527 0 8.92185C0 13.7683 4.07829 17.8437 8.92815 17.8437Z" transform="translate(40.3423 281.313)" fill="#36436B"/>
<path d="M9.03837 17.8437H114.413C119.262 17.8437 123.341 13.8784 123.341 8.92185C123.341 4.07542 119.373 0 114.413 0H8.92815C4.0783 0 0 3.96527 0 8.92185C0.110224 13.7683 4.07829 17.8437 9.03837 17.8437Z" transform="translate(253.736 281.313)" fill="#354E72"/>
<path d="M5.18051 10.3537H47.0657C49.9315 10.3537 52.2462 8.04068 52.2462 5.17688C52.2462 2.31308 49.9315 0 47.0657 0H5.18051C2.31469 0 0 2.31308 0 5.17688C0 8.04068 2.31469 10.3537 5.18051 10.3537Z" transform="translate(288.346 285.279)" fill="#476491"/>
<path d="M3.85784 7.71023C5.98847 7.71023 7.71568 5.98424 7.71568 3.85512C7.71568 1.72599 5.98847 0 3.85784 0C1.72721 0 0 1.72599 0 3.85512C0 5.98424 1.72721 7.71023 3.85784 7.71023Z" transform="translate(115.405 286.6)" fill="#6AB142"/>
<path d="M3.85784 7.71023C5.98847 7.71023 7.71568 5.98424 7.71568 3.85512C7.71568 1.72599 5.98847 0 3.85784 0C1.72721 0 0 1.72599 0 3.85512C0 5.98424 1.72721 7.71023 3.85784 7.71023Z" transform="translate(133.041 286.6)" fill="#6AB142"/>
<path d="M19.9505 0C20.171 0.660877 23.1471 24.0119 23.1471 24.0119H0L1.10224 16.5219C1.10224 16.5219 5.84188 1.76234 6.393 1.76234C6.94412 1.76234 19.9505 0 19.9505 0Z" transform="translate(239.517 115.103)" fill="#EBECF0"/>
<path d="M37.7155 29.2499C37.495 29.8007 38.487 33.8761 35.2905 37.7312C32.2043 41.5863 27.0237 46.8733 18.4263 47.6443C9.82878 48.4154 7.73453 49.0762 5.53005 47.6443C3.32557 46.2124 -1.30386 39.3834 0.349503 25.3948C2.00286 11.4062 3.43579 3.91631 3.87669 1.71339C4.20736 -0.489539 35.6212 0.0611923 35.6212 0.0611923L37.7155 29.2499Z" transform="translate(222.193 83.6499)" fill="white"/>
<path d="M44.3101 12.9973C36.8148 13.7683 26.3435 -0.110145 21.4937 4.07541C9.1486 14.6494 0 0 0 0C0 0 2.42493 14.0987 4.07829 19.8263C7.16456 31.3917 19.2892 33.2642 26.3436 33.3743C33.2877 33.5946 41.0034 30.0699 43.4283 31.7221C45.8532 33.3743 49.8213 55.4035 49.4906 57.0557C49.1599 58.7079 67.6776 37.2294 64.922 24.7829C63.0482 16.3016 51.9155 12.3364 44.3101 12.9973Z" transform="translate(210.197 61.6819)" fill="#36436B"/>
<path d="M29.5401 38.5512H32.8468V19.9365C32.8468 8.92184 23.9186 0 12.8962 0H0L3.41695 1.76234L5.73165 3.30439H12.786C21.9346 3.30439 29.4298 10.7943 29.4298 19.9365V38.5512H29.5401Z" transform="translate(236.651 65.7573)" fill="#6AB142"/>
<path d="M5.0703 18.064H14.3291C17.0847 18.064 19.3994 15.7509 19.3994 12.9972V5.06672C19.3994 2.31307 17.0847 0 14.3291 0H5.0703C2.3147 0 0 2.31307 0 5.06672V12.9972C0.110224 15.7509 2.3147 18.064 5.0703 18.064Z" transform="translate(256.051 99.5722)" fill="#6AB142"/>
<path d="M11.8313 28.0873L12.4926 25.9945L5.32804 23.5713C2.79289 22.6901 1.4702 20.0466 2.352 17.5132L6.76096 7.71023L7.8632 0L0.36796 16.6321C-0.844505 20.377 1.02931 24.3423 4.66671 25.5539L11.8313 28.0873Z" transform="translate(216.443 96.4881)" fill="#6AB142"/>
<path d="M1.9077 5.32087L8.85181 6.64263C10.0643 6.86292 11.387 5.98175 11.6074 4.77014L11.7176 4.10926C11.9381 2.89766 11.0563 1.5759 9.84383 1.35561L2.89971 0.0338585C1.68725 -0.186434 0.364561 0.694732 0.144113 1.90634L0.033882 2.56722C-0.186566 3.88897 0.69524 5.10058 1.9077 5.32087Z" transform="translate(223.611 119.805)" fill="#6AB142"/>
<path d="M256.491 135.654C256.491 135.654 258.696 89.3925 256.491 80.2504C254.287 71.1083 242.162 27.7107 224.196 11.9597C206.229 -3.79116 174.815 -0.376627 167.541 2.26688C160.266 5.02054 115.845 66.372 97.7687 67.8039C79.8022 69.2358 10.6917 24.7367 10.6917 24.7367L0 39.3861C0 39.3861 34.1695 78.7083 48.8293 89.7229C63.4891 100.738 86.5259 117.039 109.783 116.929C123.782 116.819 126.978 113.735 128.631 108.888C131.828 99.526 134.804 67.8039 134.804 67.8039L131.167 135.654H223.424L225.959 80.2504L227.062 135.654H256.491Z" transform="translate(64.9219 145.659)" fill="#476491"/>
<path d="M32.9498 36.6725C32.9498 36.6725 31.7373 36.2319 31.076 34.9101C30.4146 33.5884 25.675 14.4229 24.2421 13.4316C22.8092 12.4403 19.282 16.9563 21.3762 25.3274C23.4705 33.6985 7.26756 0.985109 3.85061 0.103939C0.433666 -0.77723 1.53591 4.0692 1.09501 9.90695C0.654114 15.6346 -0.999248 20.2607 0.874561 24.8868C2.74837 29.513 17.7388 45.5943 26.5568 45.374L32.9498 36.6725Z" transform="translate(40.4595 136.918)" fill="white"/>
<path d="M30.2014 7.93052C29.9809 8.04067 22.5959 8.70154 15.1007 8.70154C7.60546 8.5914 0 7.71023 0 7.71023L2.86582 0H26.0129L30.2014 7.93052Z" transform="translate(236.541 139.115)" fill="#6B77A2"/>
</svg>
