<svg width="25" height="25" viewBox="0 0 25 25" fill="none" xmlns="http://www.w3.org/2000/svg">
<path d="M2.44043 10.1973C2.44954 9.65495 2.51107 9.22656 2.625 8.91211C2.73893 8.59766 2.97135 8.24902 3.32227 7.86621L4.21777 6.94336C4.60059 6.51042 4.79199 6.04557 4.79199 5.54883C4.79199 5.07031 4.66667 4.69661 4.41602 4.42773C4.16536 4.1543 3.80078 4.01758 3.32227 4.01758C2.85742 4.01758 2.48372 4.14062 2.20117 4.38672C1.91862 4.63281 1.77734 4.96322 1.77734 5.37793H0.512695C0.52181 4.63965 0.783854 4.04492 1.29883 3.59375C1.81836 3.13802 2.49284 2.91016 3.32227 2.91016C4.18359 2.91016 4.85352 3.14258 5.33203 3.60742C5.8151 4.06771 6.05664 4.70117 6.05664 5.50781C6.05664 6.30534 5.6875 7.09147 4.94922 7.86621L4.2041 8.60449C3.87142 8.97363 3.70508 9.50456 3.70508 10.1973H2.44043ZM2.38574 12.3643C2.38574 12.1592 2.44727 11.9883 2.57031 11.8516C2.69792 11.7103 2.88477 11.6396 3.13086 11.6396C3.37695 11.6396 3.5638 11.7103 3.69141 11.8516C3.81901 11.9883 3.88281 12.1592 3.88281 12.3643C3.88281 12.5693 3.81901 12.7402 3.69141 12.877C3.5638 13.0091 3.37695 13.0752 3.13086 13.0752C2.88477 13.0752 2.69792 13.0091 2.57031 12.877C2.44727 12.7402 2.38574 12.5693 2.38574 12.3643Z" transform="translate(9 5)" fill="#8B8B8B"/>
<circle cx="12.5" cy="12.5" r="12" stroke="#8B8B8B"/>
</svg>
