<svg width="20" height="21" viewBox="0 0 20 21" fill="none" xmlns="http://www.w3.org/2000/svg">
<path d="M9.63441 19.7967H4.0067C2.47729 19.7967 1.23635 18.5845 1.23635 17.1004V3.89962C1.23635 2.41108 2.48187 1.20331 4.0067 1.20331H9.72599C10.0694 1.20331 10.3442 0.935908 10.3442 0.601655C10.3442 0.267402 10.0694 0 9.72599 0H4.0067C1.795 0 0 1.75149 0 3.89962V17.1004C0 19.253 1.79958 21 4.0067 21H9.63441C9.97784 21 10.2526 20.7326 10.2526 20.3983C10.2526 20.0641 9.97326 19.7967 9.63441 19.7967Z" fill="#6ab142"/>
<path d="M15.0881 4.00101L11.1592 0.177154C10.9166 -0.0590514 10.5273 -0.0590514 10.2846 0.177154C10.0419 0.41336 10.0419 0.792179 10.2846 1.02838L13.1603 3.8272H0.618177C0.274745 3.8272 0 4.0946 0 4.42885C0 4.76311 0.274745 5.03051 0.618177 5.03051H13.1603L10.2846 7.82932C10.0419 8.06553 10.0419 8.44435 10.2846 8.68055C10.4037 8.79643 10.564 8.85882 10.7197 8.85882C10.8753 8.85882 11.0356 8.80088 11.1547 8.68055L15.0835 4.8567C15.3308 4.61603 15.3308 4.23276 15.0881 4.00101Z" transform="translate(4.73059 6.0752)" fill="#6ab142"/>
</svg>
