<svg width="25" height="26" viewBox="0 0 25 26" fill="none" xmlns="http://www.w3.org/2000/svg">
<path d="M7.055 0C3.15975 0.00264961 0.00275 3.0444 0 6.79745C0.0348125 9.24725 1.27194 11.5364 3.335 12.9686V17.8776C3.33669 17.9338 3.3485 17.9892 3.37 18.0414V18.08C3.37862 18.0998 3.38869 18.1192 3.4 18.1378L5.16 20.6621C5.25312 20.7949 5.40869 20.8743 5.575 20.8741H8.485C8.65131 20.8743 8.80687 20.7949 8.9 20.6621L10.66 18.1378C10.6713 18.1192 10.6814 18.0998 10.69 18.08V18.0414C10.7115 17.9892 10.7233 17.9338 10.725 17.8776V12.9686C12.7881 11.5364 14.0252 9.24725 14.06 6.79745C14.0574 3.06313 10.9307 0.0290855 7.055 0ZM8.245 19.9251H5.865L4.775 18.3642H9.33L8.245 19.9251ZM4.34 17.4007V16.1241H9.77L9.775 17.4007H4.34ZM10 12.3086V12.3231C9.85881 12.4126 9.77419 12.5649 9.775 12.7278V15.175H4.34V12.6988C4.34081 12.536 4.25619 12.3837 4.115 12.2942C2.20075 11.0617 1.03794 9.00102 1.005 6.783C1.10106 3.56234 3.88875 1.02648 7.23144 1.11904C10.4391 1.20786 13.0178 3.69241 13.11 6.783C13.082 9.0062 11.9186 11.0733 10 12.3086Z" transform="translate(5.44531 5.12598)" fill="#8B8B8B"/>
<path d="M0.5 0C0.223875 0 0 0.215702 0 0.481747C0 0.747792 0.223875 0.963494 0.5 0.963494C2.57819 0.966143 4.26225 2.58873 4.265 4.59105C4.265 4.85709 4.48888 5.07279 4.765 5.07279C5.04113 5.07279 5.265 4.85709 5.265 4.59105C5.26225 2.05658 3.1305 0.00264961 0.5 0Z" transform="translate(12.2002 7.30762)" fill="#8B8B8B"/>
<path d="M4.1 0H0.5C0.223875 0 0 0.215702 0 0.481747C0 0.747792 0.223875 0.963494 0.5 0.963494H4.1C4.37613 0.963494 4.6 0.747792 4.6 0.481747C4.6 0.215702 4.37613 0 4.1 0Z" transform="translate(0 11.417)" fill="#8B8B8B"/>
<path d="M4.1 0H0.5C0.223875 0 0 0.215702 0 0.481747C0 0.747792 0.223875 0.963494 0.5 0.963494H4.1C4.37613 0.963494 4.6 0.747792 4.6 0.481747C4.6 0.215702 4.37613 0 4.1 0Z" transform="translate(20.3999 11.417)" fill="#8B8B8B"/>
<path d="M3.48936 0.168415C3.30973 -0.0336774 2.99411 -0.0572219 2.78436 0.115846C2.7648 0.131984 2.74655 0.149567 2.7298 0.168415V0.15878L0.174797 2.63014C-0.0349529 2.80321 -0.0593904 3.10731 0.120235 3.30941C0.29986 3.5115 0.615484 3.53504 0.825234 3.36198C0.844797 3.34584 0.863047 3.32825 0.879797 3.30941L3.4348 0.847678C3.64455 0.674611 3.66898 0.370508 3.48936 0.168415Z" transform="translate(3.47559 17.1211)" fill="#8B8B8B"/>
<path d="M3.35335 0.115845C3.16616 -0.038615 2.8901 -0.038615 2.70291 0.115845L0.14791 2.57757C-0.048152 2.76491 -0.0494643 3.06998 0.144973 3.25888C0.239536 3.35078 0.368535 3.40214 0.50291 3.40136L0.497911 3.39654C0.630786 3.39726 0.758535 3.34698 0.85291 3.25684L3.40791 0.795108C3.58754 0.593015 3.5631 0.288913 3.35335 0.115845Z" transform="translate(17.9419 3.25586)" fill="#8B8B8B"/>
<path d="M3.53398 2.73667C3.50586 2.7 3.47249 2.66736 3.4348 2.63978L0.879798 0.168415C0.700173 -0.0336774 0.384548 -0.0572219 0.174798 0.115846C-0.0349523 0.288913 -0.0593909 0.593016 0.120234 0.795109C0.136984 0.813957 0.155235 0.83154 0.174798 0.847678L2.7298 3.30941C2.89392 3.52336 3.20705 3.56859 3.42911 3.41045C3.65117 3.25232 3.69811 2.95063 3.53398 2.73667Z" transform="translate(17.915 17.1123)" fill="#8B8B8B"/>
<path d="M3.38023 2.57757L0.825234 0.115845C0.615484 -0.0572223 0.299859 -0.0336769 0.120234 0.168416C-0.0400781 0.34877 -0.0400781 0.614754 0.120234 0.795108L2.67524 3.25683C2.88498 3.4299 3.20061 3.40636 3.38023 3.20426C3.54055 3.02391 3.54055 2.75793 3.38023 2.57757Z" transform="translate(3.52979 3.25586)" fill="#8B8B8B"/>
<path d="M0.500231 0C0.224106 0 0.000230997 0.215702 0.000230997 0.481747V3.96478C-0.0080815 4.2307 0.208981 4.45279 0.484981 4.46074C0.490043 4.46086 0.495106 4.46098 0.500231 4.46098C0.776356 4.46098 1.00023 4.24527 1.00023 3.97923V0.481747C1.00023 0.215702 0.776356 0 0.500231 0Z" transform="translate(12)" fill="#8B8B8B"/>
</svg>
