<svg width="25" height="21" viewBox="0 0 25 21" fill="none" xmlns="http://www.w3.org/2000/svg">
<path d="M12.8094 4.98966H11.5317C11.4511 4.7467 11.3523 4.51014 11.2361 4.28204L12.1455 3.37483C12.3219 3.19792 12.3219 2.91215 12.1455 2.73524L10.5086 1.10226C10.3312 0.926376 10.0447 0.926376 9.8674 1.10226L8.95796 2.00947C8.73339 1.89862 8.5008 1.80461 8.26224 1.72824V0.453606C8.26224 0.203102 8.05864 0 7.80752 0H5.47936C5.22824 0 5.02464 0.203102 5.02464 0.453606V1.77813C4.79541 1.85593 4.57203 1.94988 4.35621 2.05937L3.41039 1.12046C3.23305 0.944577 2.94658 0.944577 2.76924 1.12046L1.1368 2.74885C0.96048 2.92576 0.96048 3.21153 1.1368 3.38843L2.09171 4.34101C1.98587 4.55068 1.8947 4.7674 1.81888 4.98966H0.454719C0.2036 4.98966 0 5.19276 0 5.44327V7.75212C0 8.00262 0.2036 8.20573 0.454719 8.20573H1.81888C1.89277 8.43094 1.9824 8.65077 2.08716 8.86345L1.1368 9.8251C0.96048 10.002 0.96048 10.2878 1.1368 10.4647L2.77379 12.0977C2.95113 12.2735 3.2376 12.2735 3.41494 12.0977L4.35621 11.1587C4.57208 11.2681 4.79547 11.3621 5.02464 11.4399V12.7645C5.02464 13.015 5.22824 13.2181 5.47936 13.2181H7.79388C8.045 13.2181 8.2486 13.015 8.2486 12.7645V11.4671C8.48716 11.3907 8.71969 11.2967 8.94432 11.1859L9.85376 12.0931C10.0311 12.269 10.3176 12.269 10.4949 12.0931L12.1319 10.4601C12.3082 10.2832 12.3082 9.99747 12.1319 9.82056L11.2225 8.91335C11.3389 8.6853 11.4377 8.44875 11.518 8.20573H12.7958C13.0469 8.20573 13.2505 8.00262 13.2505 7.75212V5.44327C13.2506 5.19798 13.0552 4.99703 12.8094 4.98966ZM12.3547 7.29852H11.1906C10.9779 7.29182 10.789 7.43312 10.7359 7.63872C10.6392 8.03063 10.486 8.4065 10.2812 8.75459C10.1742 8.93286 10.2023 9.16091 10.3494 9.30799L11.1724 10.129L10.1766 11.1179L9.34447 10.2878C9.19885 10.1418 8.97291 10.112 8.79426 10.2152C8.44669 10.419 8.07149 10.5718 7.6802 10.6688C7.47234 10.72 7.32836 10.9089 7.33462 11.1224V12.3109H5.93408V11.1043C5.94079 10.8921 5.79914 10.7036 5.59304 10.6507C5.21108 10.5516 4.84514 10.3989 4.50626 10.1971C4.32756 10.0903 4.09895 10.1184 3.95151 10.2651L3.08754 11.1269L2.09625 10.1472L2.95567 9.27623C3.10204 9.13097 3.13188 8.90558 3.02843 8.72737C2.82721 8.39199 2.67414 8.03012 2.57371 7.65233C2.52062 7.44673 2.33168 7.30543 2.11899 7.31212H0.918532V5.89687H2.15991C2.37261 5.90356 2.56155 5.76227 2.61463 5.55667C2.71535 5.17899 2.86837 4.81712 3.06935 4.48162C3.15808 4.29672 3.11147 4.07548 2.95567 3.94183L2.09625 3.07091L3.09209 2.08205L3.95605 2.9439C4.1035 3.09064 4.33211 3.11871 4.51081 3.01194C4.84992 2.8106 5.2158 2.65785 5.59759 2.55834C5.80187 2.50362 5.9413 2.3156 5.93408 2.10473V0.907211H7.33916V2.09566C7.33291 2.30919 7.47689 2.49806 7.68475 2.54926C8.07604 2.64622 8.45124 2.79903 8.79881 3.00287C8.97746 3.10606 9.2034 3.0763 9.34902 2.93029L10.1812 2.09566L11.177 3.08452L10.3494 3.91008C10.2023 4.05716 10.1742 4.28521 10.2812 4.46348C10.4862 4.81145 10.6394 5.18738 10.7359 5.57935C10.789 5.78495 10.9779 5.92624 11.1906 5.91955H12.3547V7.29852Z" transform="translate(0 7.78125)" fill="#6AB142"/>
<path d="M2.54643 0C1.14009 0 0 1.1373 0 2.54019C0 3.94308 1.14009 5.08038 2.54643 5.08038C3.95276 5.08038 5.09285 3.94308 5.09285 2.54019C5.09035 1.13827 3.95173 0.00249483 2.54643 0ZM2.54643 4.15951V4.17311C1.64233 4.17311 0.909438 3.44202 0.909438 2.54013C0.909438 1.63825 1.64233 0.907155 2.54643 0.907155C3.45052 0.907155 4.18341 1.63825 4.18341 2.54013C4.17591 3.43669 3.44523 4.15956 2.54643 4.15951Z" transform="translate(4.09277 11.8643)" fill="#6AB142"/>
<path d="M13.4705 6.44271C13.469 6.4355 13.4675 6.42836 13.4658 6.42127L12.9747 4.185C12.9203 3.94096 12.6783 3.78679 12.4335 3.84026L11.1876 4.11242C11.0523 3.89248 10.9003 3.6832 10.7329 3.48644L11.4423 2.40686C11.5775 2.19633 11.5165 1.9164 11.3058 1.78089L9.35054 0.524399C9.1395 0.389508 8.85888 0.450348 8.72303 0.660481L8.02277 1.74913C7.77921 1.68841 7.53144 1.64594 7.28157 1.62213L7.0042 0.352029C6.94792 0.107876 6.70385 -0.0445355 6.45916 0.0116549C6.45285 0.0130724 6.4466 0.01466 6.44034 0.016361L4.16675 0.510791C3.92217 0.564997 3.76756 0.806429 3.82116 1.05058L4.13947 2.33882C3.93126 2.46373 3.73221 2.60316 3.54378 2.75614L2.42063 2.03939C2.20958 1.90449 1.92896 1.96533 1.79312 2.17547L0.528998 4.12149C0.393776 4.33202 0.454765 4.61195 0.665413 4.74747L1.80221 5.47324C1.74503 5.70293 1.70399 5.93637 1.67944 6.17179L0.356205 6.4621C0.111566 6.5163 -0.0429812 6.75773 0.0106188 7.00189L0.506262 9.26992C0.560601 9.51396 0.802625 9.66812 1.04738 9.61466L2.37061 9.32889C2.50106 9.52921 2.64543 9.72018 2.80259 9.90043L2.07504 11.0344C1.93982 11.245 2.00081 11.5249 2.21146 11.6604L4.15765 12.9078C4.3687 13.0427 4.64932 12.9819 4.78517 12.7718L5.50362 11.6513C5.73814 11.7122 5.9767 11.7561 6.21753 11.7829L6.49946 13.0757C6.54521 13.2885 6.73603 13.4388 6.95418 13.434H7.04967L9.32326 12.9441C9.55392 12.8701 9.6859 12.6288 9.62338 12.3953L9.346 11.1252C9.5621 10.9997 9.76877 10.8587 9.96441 10.7033L11.0694 11.4109C11.2804 11.5458 11.561 11.485 11.6969 11.2749L12.9474 9.32889C13.0871 9.12074 13.0312 8.83899 12.8225 8.69962C12.8173 8.69605 12.8119 8.69265 12.8064 8.6893L11.7287 7.99982C11.7932 7.7526 11.8388 7.50091 11.8651 7.24683L13.1111 6.97467C13.3576 6.92676 13.5185 6.68862 13.4705 6.44271ZM11.3468 6.45302C11.1449 6.496 10.9974 6.66922 10.9875 6.87488C10.9735 7.28103 10.9 7.68298 10.7693 8.06786C10.7031 8.26512 10.78 8.48206 10.9557 8.59404L11.9379 9.22002L11.1785 10.3994L10.1872 9.76435C10.0126 9.65282 9.78435 9.67334 9.63247 9.81424C9.33628 10.0858 9.00246 10.3135 8.64118 10.4901C8.45287 10.5815 8.35147 10.7894 8.39563 10.9936L8.65028 12.1548L7.28612 12.4542L7.02693 11.2749C6.98385 11.0735 6.8102 10.9264 6.60404 10.9165C6.20912 10.8991 5.81874 10.8258 5.44451 10.6988C5.39756 10.6834 5.34839 10.6757 5.299 10.6761C5.1444 10.6764 5.00053 10.755 4.91704 10.8848L4.25769 11.9099L3.07542 11.1524L3.71203 10.1091C3.82383 9.93484 3.80326 9.70719 3.66201 9.55569C3.39719 9.26901 3.1737 8.94689 2.99812 8.59858C2.90502 8.41249 2.69698 8.31343 2.49338 8.35817L1.28383 8.62126L0.983717 7.26044L2.19327 6.99735C2.3967 6.95392 2.5446 6.77832 2.5525 6.57096C2.58126 6.17712 2.66544 5.78923 2.80259 5.4188C2.86642 5.22285 2.78986 5.00863 2.61616 4.89716L1.5794 4.23489L2.33878 3.05552L3.33916 3.69964C3.51485 3.81355 3.74585 3.79291 3.89847 3.64974C4.18596 3.37866 4.51052 3.14959 4.86247 2.96933C5.04532 2.87549 5.14229 2.67092 5.09892 2.47037L4.83973 1.29099L6.20389 0.991613L6.45853 2.15284C6.50429 2.36564 6.6951 2.51601 6.91325 2.51119C7.31517 2.52185 7.71339 2.59057 8.09552 2.71531C8.29196 2.77899 8.5067 2.70261 8.61845 2.52934L9.25505 1.54048L10.4373 2.298L9.80526 3.27779C9.69227 3.45407 9.71483 3.68456 9.85983 3.83572C10.1312 4.13255 10.3579 4.4672 10.5328 4.82912C10.6259 5.01521 10.834 5.11432 11.0376 5.06953L12.1743 4.82458L12.4745 6.1854L11.3468 6.45302Z" transform="translate(11.5215)" fill="#6AB142"/>
<path d="M5.03471 2.00041C4.78336 0.83124 3.74609 -0.00299704 2.54739 8.09272e-06C1.14106 -0.000502214 0.000568611 1.13635 2.12515e-07 2.53924C-0.000568186 3.94212 1.13913 5.07982 2.54546 5.08039C3.95179 5.0809 5.09228 3.94405 5.09285 2.54116C5.09291 2.35932 5.07341 2.17805 5.03471 2.00041ZM2.88843 4.13689H2.89298C2.01168 4.31505 1.14788 3.76272 0.942236 2.88948C0.750686 2.00795 1.30976 1.13793 2.19271 0.943508C2.30781 0.919126 2.42519 0.906993 2.54285 0.907219C3.44694 0.905915 4.18091 1.63594 4.18222 2.53782C4.18336 3.30861 3.644 3.97524 2.88843 4.13689Z" transform="translate(15.7227 4.18066)" fill="#6AB142"/>
</svg>
