<svg width="16" height="21" viewBox="0 0 16 21" fill="none" xmlns="http://www.w3.org/2000/svg">
<path d="M12.0313 0H1.30651C0.586396 0 0 0.578299 0 1.28784V19.712C0 20.4226 0.586396 21 1.30651 21H14.4434C15.1641 21 15.75 20.4226 15.75 19.712V3.98209L12.0313 0ZM12.3397 1.9271L13.9696 3.67289H12.3397V1.9271ZM14.6527 19.712C14.6527 19.8255 14.5585 19.9186 14.4428 19.9186H1.30651C1.19104 19.9186 1.09735 19.8255 1.09735 19.712V1.28784C1.09735 1.17414 1.19104 1.08199 1.30651 1.08199H11.2418V4.21383C11.2418 4.51202 11.4882 4.75376 11.791 4.75376H14.6527V19.712ZM3.03309 5.75176H12.3514C12.5784 5.75176 12.7625 5.9332 12.7625 6.15691C12.7625 6.38062 12.5784 6.56206 12.3514 6.56206H3.03309C2.80614 6.56206 2.62198 6.38062 2.62198 6.15691C2.62198 5.93325 2.80614 5.75176 3.03309 5.75176ZM12.7625 8.87954C12.7625 9.10321 12.5784 9.2847 12.3514 9.2847H3.03309C2.80614 9.2847 2.62198 9.10325 2.62198 8.87954C2.62198 8.65584 2.80614 8.47439 3.03309 8.47439H12.3514C12.5784 8.47439 12.7625 8.65588 12.7625 8.87954ZM12.7625 11.513C12.7625 11.7367 12.5784 11.9182 12.3514 11.9182H3.03309C2.80614 11.9182 2.62198 11.7367 2.62198 11.513C2.62198 11.2893 2.80614 11.1079 3.03309 11.1079H12.3514C12.5784 11.1079 12.7625 11.2893 12.7625 11.513ZM12.7625 14.1913C12.7625 14.415 12.5784 14.5965 12.3514 14.5965H3.03309C2.80614 14.5965 2.62198 14.415 2.62198 14.1913C2.62198 13.9676 2.80614 13.7862 3.03309 13.7862H12.3514C12.5784 13.7862 12.7625 13.9676 12.7625 14.1913Z" transform="translate(0 21) scale(1 -1)" fill="#8B8B8B"/>
</svg>
