<?xml version="1.0" encoding="utf-8"?>
<!-- Generator: Adobe Illustrator 22.1.0, SVG Export Plug-In . SVG Version: 6.00 Build 0)  -->
<svg version="1.1" id="Layer_1" xmlns="http://www.w3.org/2000/svg" xmlns:xlink="http://www.w3.org/1999/xlink" x="0px" y="0px"
	 viewBox="0 0 1438 1319.2" style="enable-background:new 0 0 1438 1319.2;" xml:space="preserve">
<style type="text/css">
	.st0{fill:#EBECF0;}
	.st1{fill:#6AB142;}
	.st2{fill:#A6D389;}
	.st3{fill:#FFFFFF;}
	.st4{fill:#36436B;}
	.st5{fill:#6B77A2;}
	.st6{opacity:0.2;fill:#A6D389;}
	.st7{opacity:0.5;fill:#A6D389;}
	.st8{opacity:0.2;fill:#36436B;}
	.st9{opacity:0.2;}
	.st10{fill:#354E72;}
	.st11{fill:#476491;}
	.st12{fill:#C7CAD5;}
	.st13{fill:#C7CAC7;}
	.st14{opacity:0.5;fill:none;stroke:#A6D389;stroke-miterlimit:10;}
	.st15{fill:none;stroke:#A6D389;stroke-miterlimit:10;}
	.st16{opacity:0.2;fill:none;stroke:#36436B;stroke-miterlimit:10;}
	.st17{fill:#D1DBE8;}
	.st18{opacity:0.5;fill:#36436B;}
	.st19{opacity:0.7;}
	.st20{fill:#9EB5E5;}
</style>
<g>
	<g>
		<path class="st0" d="M345.7,1182.2c1,8.4,0.2,9.8,1.5,21.6c0.3,2.3,0.7,4.6,1.4,6.9c0.4,1.3,1,2.7,2.1,3.6c1.3,1,3.2,1.1,4.8,0.6
			c1.6-0.5,3.2-1.3,4.2-2.7c3.2-4.7,7.6-16.3,9.7-25.9c1.1-5,1.6-7.9,1.6-13.5c0-2-0.5-4-1.4-5.7c-1.7-3.1-5.5-4.6-9-5
			c-4.9-0.5-9.9,0.2-14.7,1.2c-2.9,0.6-5.5,2.8-4.1,7l2.4,5.1C345,1177.6,345.5,1179.9,345.7,1182.2z"/>
	</g>
	<g>
		<path class="st0" d="M417.2,1120.2c1.1,12.7,5.5,25.1,9.5,37.3c0.8,2.6,2.7,5.7,5.4,5c1.2-0.3,2-1.5,2.6-2.6c1-2,1.7-4.2,2.2-6.4
			c2.7-10.3,4.9-20.7,6.6-31.3c0.3-2.1,0.6-4.6-1-6.2c-0.6-0.6-1.5-1-2.4-1.3c-7.6-2.7-16.6-1.4-23.1,3.4L417.2,1120.2z"/>
	</g>
	<g>
		<path class="st1" d="M299.6,957.7c-9.1-9.8-12.1-25.8-13.1-29.4c-12.9-47.5-12-130-7.5-194.3c6,2.9,12,5.7,17.9,8.6
			c1.3,0.6,2.7,1.3,3.6,2.4c1.2,1.3,1.6,3.1,2,4.9c6,26.3,1.6,53.7-0.1,80.7c-2.3,35.9,0.1,72,0.1,108c0,6.9,2.1,12.4-1.7,18
			L299.6,957.7z"/>
	</g>
	<g>
		<path class="st1" d="M394.5,841.5c-4.6,20.3-8.8,41.8-11.9,62.3c-1.5,10-2.6,20.2-1.4,30.2c1.5,12.4,4.5,34.1,8.1,46.1
			c12.8,42.7,29.6,81.5,47.9,124c0.7,1.6,1.7,3.5,1,5.1c-0.8,1.9-5.2,5.1-6.3,5.9c-6.6,4.4-12.9,7.1-16.5,8.3
			c-4.2,1.4-8.3-1.8-12.8-4.8c-5.8-3.9-10.4-7.7-15.9-13.4c-5.2-5.4-7.1-10.7-8.4-18.1c-2.4-13.2-3.1-26.6-4.2-40
			c-2.7-32.8-7.4-65.4-7.9-98.3s0.1-66,14.2-95.6c1.8-3.7,6.5-8.6,10.4-9.8L394.5,841.5z"/>
	</g>
	<g>
		<path class="st2" d="M326.8,719.5c18.1,1.8,34.7,5.5,52.8,7.4c2.2,0.2,4.4,0.5,6.3,1.6c2,1.2,3.3,3.2,4.5,5.2
			c6,9.9,11.2,20.4,13.6,31.8c4.5,21.7-1.4,44-6.8,65.5c-6.5,26-12.1,52.2-16.9,78.5c-2.5,13.5-4.7,27-5.1,40.7
			c-0.4,12.2,0.7,24.3,1.7,36.4c5.2,62.5,8.6,125.1,9.5,187.8c-13.1,7.2-28.1-9.2-42.8-7.1c-3.9,0.6-8.2,2.4-11.7,0.3
			c-2.7-1.6-3.6-5-4.3-8.1c-5.2-23.1-8.9-46.5-11.2-70.1c-2-20.4-2.9-41-6.8-61.1c-2.5-13.2-6.3-26.1-8.4-39.4
			c-2-12.8-2.3-25.8-2.5-38.8c-1.1-55.5-1.3-111-0.7-166.5c0.2-14.1,0.4-28.4,4-42c9.4,7,20.8,11.3,32.5,12.3
			C334.1,742.1,331.5,730.3,326.8,719.5"/>
	</g>
	<g>
		<path class="st0" d="M317.6,476.3c-0.3,5.7-0.3,11.2-0.6,16.9c-0.1,2-0.2,4.1-1.3,5.8c-1.1,1.8-3.1,3.3-2.9,5.4
			c0.1,1.9,2,3.1,3,4.7c2.3,3.5,0.4,8.2,1.2,12.4c1,5.5,6.5,9.1,12,10.5c2.6,0.6,5.7,1.1,7.2,3.4c1.8,2.7,0,6.6-2.8,8.3
			c-2.8,1.7-6.2,1.7-9.5,1.7c-3.7,0-7.5,0-11.2,0.1c-2.7,0-6.2,0.8-6.4,3.4c-0.1,1.4,0.9,2.5,1.8,3.6c3.3,3.8,6.8,7.4,10.4,11
			c5.8,6,11.9,12.1,19.6,15.1c4.1,1.6,8.6,2.3,13,2.8c16.6,1.9,33.4,2,50,0.1c1.2-0.1,2.9-0.7,2.8-2c0-0.4-0.3-0.8-0.5-1.1
			c-2.4-3.2-6.1-5.1-9.6-7c-4.8-2.7-9.5-5.8-13.9-9.1c-2.8-2.1-5.6-4.5-7.3-7.6c-1.6-3-2.1-6.4-2.6-9.8c-1.6-11.9-2.9-24.6,2.1-35.5
			c1.7-3.7,4.2-7.7,3-11.6c-0.8-2.7-3.1-4.6-5.4-6.2c-11.5-8.3-25-14.1-39.1-16.6c-4.3-0.8-8.9-1.2-12.9,0.7L317.6,476.3z"/>
	</g>
	<g>
		<path class="st0" d="M295.5,541.5c-1.4,21-10.5,43.2-21.7,61c-2.8-1.4-1.9-5.7-3.3-8.5c-1.6-3.2-5.8-3.9-9.4-4.2
			c-26.5-2.2-69.1-8.6-79.3-11.3c-6.2-1.6-15.3-5.4-19.7-10.1c-6.1-6.4-12.9-18.2-16.1-26.4c-10.1-25.3-11.5-33.2-16.1-55.8
			c-2.1-10.2-7.5-21.3-14.8-29.7c-6-6.9-18-17.3-12-21.7c1.6-0.7,4.6,1.3,6,3c1.4,1.7,3.4,2.4,5.3,1.3c1.9-1.1,2.4-3.7,1.2-5.5
			c-4.5-7.3-6.2-11.1-5.9-14.8c0.2-2.4,1.1-3.1,2-3.8c1-0.8,2.6-1.4,3.9-1.4c1.6,0,3.5,0.2,5.8,1.6c11.6,7.1,8.4,25.8,12.9,38.5
			c3.3,9.5,9.2,17.8,13.8,26.7c10.6,20.3,15.1,37.7,28.7,56.1c1.7,2.3,3.6,4.5,6.1,5.7c3.4,1.7,7.4,1.5,11.2,1.2
			C227.9,540.7,261.5,544.2,295.5,541.5"/>
	</g>
	<g>
		<path class="st3" d="M271.9,602.5c11.5-17.6,19.1-38.1,22.3-58.7c0.2-1.1,0.4-1.5,1.3-2.2c0.7-0.5,1.7-0.6,2.6-0.7
			c3.7-0.1,7.9,1,10.4,2c0.8,0.3,1.4,0.6,2.1,1.2c0.6,0.6,0.9,1,1,1.8c0.4,6.9,4.7,13,10,17.6c5.3,4.7,10.7,9.5,17.3,12.2
			c5.7,2.4,11.9,3.1,18.1,3.6c11.2,0.8,22.4,0.9,33.6,0.2c7.7-0.5,15.9-1.2,22.5,2.6c1.4,0.8,2.7,1.9,3.2,3.3
			c0.9,2.7-1.2,5.4-3.1,7.5c-18,20.6-30.7,45.5-36.6,71.9c-2.5,11.2-3.9,23-10.4,32.5c-1.4,2-3,3.9-5.2,5c-1.6,0.8-3.4,1-5.2,1.1
			c-9.9,0.7-19.7-2.1-29.2-4.8c-2.7-0.8-5.6-1.6-7.6-3.6c-1.9-1.8-2.7-4.4-3.4-6.8c-2.8-9.7-4.1-19.9-7.8-29.3
			c-0.9-2.3-1.9-4.5-3.5-6.4c-5.2-6.3-14.5-7-22.6-8.7c-1.1-0.2-2.3-0.6-3.1-1.4c-0.9-1-1.1-2.4-1.2-3.7
			C276.2,626.5,272.6,615,271.9,602.5"/>
	</g>
	<g>
		<path class="st3" d="M415.8,585.5c4.3,3.4,6.9,8.5,8.3,13.8c1.4,5.2,1.5,10.7,1.6,16.1c0.4,21.4-0.4,43.1-6,63.8
			c-1.4,5-3,9.9-4.7,14.8c-1.4,4.1-2.8,8.3-4.8,12.2c-4.8,9.5-12.8,17-20.8,24.1c-1.7,1.5-3.5,3.1-5.7,3.6s-5-0.3-5.8-2.4
			c-0.4-0.9-0.3-2-0.1-3c1.2-7.6,6.8-13.7,10.6-20.5c1.7-3.1,3.1-6.4,4.5-9.7c2.8-6.9,5.7-13.7,8.5-20.6c5.4-13,10.8-26.1,14.1-39.8
			c3.3-13.7,4.5-28.1,1.3-41.8c-0.9-4-2.2-7.9-2.3-12L415.8,585.5z"/>
	</g>
	<g>
		<path class="st4" d="M303.8,470.3c-1.1-1.5-1.9-3.5-1.9-5.1c0-3.3,0.6-5.1,2.8-8.6c2-3.3,11.6-12.5,19.6-15.5
			c10.6-4,23-5.4,34-2.5c5.8,1.5,10.4,2.7,17.4,5.5c6.8,2.7,11.6,5.4,16.6,9.5c5.8,4.8,9.3,8.8,11.1,12.5
			c5.1,11.1,4.9,18.6,7.5,26.7c2.4,7.4,8.3,13.4,12.4,21.6c5.5,10.9,9,30.8,11.3,46c2.6,17.3,14.2,33.2,12.1,50.5
			c-1.9,16-4.7,32.3-5.4,43.2c-0.5,9-0.5,18.4,2.7,27c4.4,11.8,12.2,28.9,11.1,43.7c-1.1,14.7-11.1,29.7-27,34.2
			c-17.6,4.9-38.5-6.3-41.8-22.3c-0.5-2.5-0.7-5.2,0.4-7.6c1.9-4.2,6.7-6.5,10.6-9.3c7.7-5.7,11.8-14.3,15.1-22.7
			c10.5-26.8,15-55.4,13.3-83.7c-0.4-6.5-1.2-13.2-4.6-19c-3.4-5.7-9.1-10.1-14.8-14c-7.5-5.1-15.4-9.6-23.7-13.7
			c-5.6-2.7-11.7-5.5-14.7-10.5c-2-3.3-2.3-7.2-2.6-10.9c-0.6-8.7-1.3-17.3-1.9-26c-0.3-4-0.5-8.3,1.9-11.8c1.3-1.8,3.3-3.4,3.6-5.5
			c0.5-3.5-3.9-5.9-7.5-7.3l-50-19.4c-2.6-1-5-2.6-7-4.6L303.8,470.3z"/>
	</g>
	<g>
		<path class="st5" d="M243.7,661.2c-0.7-3.6-1.6-8.9,1.1-11.2c1.1-0.9,2.5-1.3,3.9-1.7c9.3-2.4,19.1-3,28.7-3.4
			c7.1-0.2,18.5-0.2,24.9,3.9c2.1,1.4,6,6.4,9,15.8c1.9,6.1,3.1,8.6,5.7,18.1c1.3,5,2,8.5,3.7,13.5c4.1,11.9,8.6,27.4,10.7,34.4
			c2.2,7.6,3.8,14.4,4.7,21.5c0.2,1.4-0.6,3.1-1.9,3.6c-0.6,0.3-2.3,0.3-2.9,0.2c-7.4-1.1-16.3-3.3-20.7-5
			c-4.7-1.7-16.5-7.4-24.9-11c-4.6-2-9.1-4.7-13-7.8c-6.9-5.4-10.5-14.7-13.7-23c-6.1-16.2-10.7-28-14.5-44.4L243.7,661.2z"/>
	</g>
	<g>
		<path class="st0" d="M406,601.1c-7.7,8.9-11.4,15.3-17.3,26.8c-2.6,5.1-4.3,8.8-4.8,9.9c-7,16.2-9.3,33.5-15.2,50.7
			c-1.9,5.6-6.1,10.8-11.7,12.9c-4.3,1.6-9.1,0.8-13.7,0c-20.2-3.6-40.3-7.2-60.5-10.8c-2.6-0.5-5.4-1-7.7-2.4
			c-2.6-1.6-4.4-4.1-6.2-6.6c-3.3-4.7-6.7-9.4-10-14.1c-1.1-1.6-2.4-3.3-4.2-4.1c-1.8-0.8-4.3-0.3-5.1,1.5
			c-1.5,3.7,5.2,7.8,2.7,10.9c-1.4,1.7-4.3,0.8-5.6-1c-1.3-1.8-1.5-4.1-2.5-6c-0.7-1.5-2-2.9-3.7-2.8c-2,0.1-2.9,2.2-3.1,4.2
			c-0.9,9,2.7,14.6,5.4,19.3c2.1,3.6,6.5,9.6,11.7,11.7c4.6,1.9,10.5,3.7,15.4,4.4c33.3,4.6,61.5,21.8,94.8,26.2
			c1.9,0.3,5,0.5,8.4,0c2-0.3,4.3-1.4,5.6-3.1c6.1-7.6,10.9-16.2,14.7-25.1c13.4-31.6,28-65.4,25.5-100.1c0-0.1,0-0.1,0-0.2
			c-0.5-6.6-9.2-8.6-12.7-3L406,601.1z"/>
	</g>
	<path class="st6" d="M0.5,301.4c0,0-0.2,165.2-0.2,187.8S5.7,519,10,524c6.8,7.9,59.1,40.7,78,50.3c14.8,7.6,111.7,44,111.7,44
		V418.1c-7.8-1.7-133.5-60.4-168.6-80c-4.9-2.7-9.3-6.1-13.1-10.1c-5.4-5.7-12.6-14-14.1-16.2C2.2,309.2,0.5,301.4,0.5,301.4z"/>
	<path class="st7" d="M1.3,306.8c-1.5-4.6-1.7-12.8-0.7-18c1.3-6.4,2.7-12.5,8.8-21.3c6.3-9,32.5-23.7,38.2-26.6v107
		c0,0-24.9-11.9-33-20.9C8.3,319.9,3.2,312.7,1.3,306.8z"/>
	<path class="st8" d="M12.6,369.6v59.1c0,0,5.8,12.6,13.2,18.7s32.3,23.6,40.7,26.8v-69.1L12.6,369.6z"/>
	<g class="st9">
		<g>
			<path class="st4" d="M65.1,499.3c15.2,7.3,30.8,13.9,46.8,19.2c14.7,4.9,29.7,8.7,44.8,12c0.6,0.1,0.9-0.8,0.3-1
				c-14.9-3.2-29.6-6.9-44.1-11.7c-16.2-5.4-31.9-12-47.3-19.4C65,498.1,64.5,499,65.1,499.3L65.1,499.3z"/>
		</g>
	</g>
	<g class="st9">
		<g>
			<path class="st4" d="M65.1,510.4c15.2,7.3,30.8,13.9,46.8,19.2c14.7,4.9,29.7,8.7,44.8,12c0.6,0.1,0.9-0.8,0.3-1
				c-14.9-3.2-29.6-6.9-44.1-11.7c-16.2-5.4-31.9-12-47.3-19.4C65,509.3,64.5,510.2,65.1,510.4L65.1,510.4z"/>
		</g>
	</g>
	<g class="st9">
		<g>
			<path class="st4" d="M65.1,521.9c15.2,7.3,30.8,13.9,46.8,19.2c14.7,4.9,29.7,8.7,44.8,12c0.6,0.1,0.9-0.8,0.3-1
				c-14.9-3.2-29.6-6.9-44.1-11.7c-16.2-5.4-31.9-12-47.3-19.4C65,520.8,64.5,521.6,65.1,521.9L65.1,521.9z"/>
		</g>
	</g>
	<g class="st9">
		<g>
			<path class="st4" d="M65.1,532.6c15.2,7.3,30.8,13.9,46.8,19.2c14.7,4.9,29.7,8.7,44.8,12c0.6,0.1,0.9-0.8,0.3-1
				c-14.9-3.2-29.6-6.9-44.1-11.7c-16.2-5.4-31.9-12-47.3-19.4C65,531.5,64.5,532.4,65.1,532.6L65.1,532.6z"/>
		</g>
	</g>
	<g>
		<path class="st0" d="M765.4,818.6c-1.5,3.9-2.5,7.9-3.6,12c-0.9,3.4-1.6,7.5,0.6,10c1.5,1.8,4,2.2,6.2,2.1
			c7.9-0.1,15.5-3.8,22-8.7c3.2-2.4,6.3-5.2,8.6-8.6c2.3-3.5,3.8-7.7,3.5-12c0-0.7-0.2-1.4-0.6-2c-0.6-0.9-1.8-1-2.8-1.1
			c-9.1-0.6-18.6-1.1-27.2,2.5c-2.4,1-4.8,2.4-6.2,4.7L765.4,818.6z"/>
	</g>
	<g>
		<path class="st0" d="M791.5,708c3.4,3.6,7.5,4.1,10.8,7.7c1.7,1.8,2.3,6.5,2.7,9c0.4,2.4,1.8,5.7,3.6,8c0.4,0.5,2.1,3.6,4.1,4.4
			c1.9,0.8,4.3-0.1,5-0.7c2.4-2,3.1-4.1,3.9-6.6c1-3.3,1.6-6.1,2.1-9.5c1.1-6.5,2-13.2,0.5-19.6c-1.5-6.4-5.8-12.6-12.1-14.4
			c-1.3-0.4-2.6-0.6-3.9-0.3c-1.4,0.3-2.5,1.2-3.7,2c-2.1,1.6-4.1,3.3-6.1,5c-3.5,3-6.9,6.4-8.2,10.9c-0.3,1.1-0.4,2.4,0.5,3.1
			L791.5,708z"/>
	</g>
	<g>
		<path class="st10" d="M700.3,640.6c8.7,7.3,12.6,20.2,20.2,28.5c4.7,5.1,10.3,9.3,15.9,13.5c14.5,10.9,29,21.8,45.2,30
			c3.1,1.6,6.7,3.1,10.1,2c2.5-0.8,4.3-2.9,6-4.9c5.6-6.6,11.2-13.2,16.7-19.8c3-3.5,4.5-6.5,3.6-9.5c-0.9-3.3-7.6-11.8-10.1-14.6
			c-5.8-6.7-11.8-12.1-20-19.4c-4.5-3.9-7.4-8.4-12.9-10.5c-5.9-2.2-9.6-3.3-15.9-2.9C738.4,634.3,720.4,635.6,700.3,640.6"/>
	</g>
	<g>
		<path class="st11" d="M790.1,454c-17.6,19.4-33.1,37.5-50.7,57c-8.1,8.9-17.6,20.7-25.8,29.5c-7.4,7.8-12.9,16.6-18.3,25.2
			c-8.6,13.9-8.2,25.5-4.4,43c3.4,15.9,9.2,28.7,14.7,44c4.8,13.3,7.7,27.1,10.9,40.9c9.5,40.6,21.6,80.6,36.3,119.6
			c0.8,2.2,1.9,4.6,4,5.6c1.5,0.7,3.2,0.5,4.8,0.4c11.8-1.3,23.5-3.5,35-6.7c3.9-1.1,8.2-2.7,9.6-6.4c0.8-2.1,0.5-4.4,0.2-6.7
			c-8-58.1-15.9-116.3-26.5-174c-1.9-10.3-3.8-20.8-2.1-31.1c3.6-20.8,21.3-35.8,37.8-48.9c13-10.3,26.1-20.7,39.1-31
			c6.1-4.9,12.6-10.2,14.8-17.8c2.6-8.9-1.7-18.7-8.6-24.9c-6.9-6.2-15.9-9.5-24.8-12c-15.6-4.5-25.3-5.5-41.4-6.7L790.1,454z"/>
	</g>
	<g>
		<path class="st0" d="M1102.7,1123.9c-1.2,13-9.3,43.5-17.4,53.7c-2.2,2.9-5.1,6.1-4.1,9.6c0.6,1.9,2.3,3.3,3.8,4.7
			c7,6.5,10.8,16.8,19.6,20.5c1.1,0.4,2.4,0.7,3.2-0.1c0.8-0.7,0.6-2,0.5-3c-2.2-14.2,2.5-40.4,6.7-54.1c2.2-7.3,5.3-14.4,8.4-21.4
			c4.7-10.7,9.4-21.4,14.1-32.1c10.4-23.5,20.7-46.9,30.8-70.5c2-4.6,4-9.3,4.2-14.3c0-1.1,0-2.3-0.8-3c-1.1-1.1-2.9-0.8-4.5-0.4
			c-9.4,2.6-19.2,5.3-26.6,11.7c-9.2,7.9-13.2,20.1-18.7,31c-6.1,12.2-10.8,23.6-13.9,38.7L1102.7,1123.9z"/>
	</g>
	<g>
		<path class="st12" d="M1033.2,1105.9c-8.1,11.6-32.1,35.8-45,41c-3.6,1.4-8,2.9-8.9,6.8c-0.5,2.2,0.3,4.4,0.9,6.5
			c2.8,10.1,0.7,21.9,6.7,30.3c0.7,1,1.8,2,3,1.7c1.1-0.3,1.7-1.5,2.1-2.6c5.8-14.6,24.2-36.7,35.5-47.3c6-5.7,12.7-10.6,19.3-15.5
			c10.1-7.5,20.2-14.9,30.3-22.4c22.2-16.4,44.3-32.7,66.3-49.3c4.3-3.2,8.7-6.6,11.6-11.1c0.6-1,1.2-2.2,0.9-3.3
			c-0.4-1.7-2.2-2.4-3.8-2.9c-10-2.9-20.4-5.7-30.6-3.8c-12.7,2.3-23,11.6-33.8,18.8c-12.2,8.1-22.6,16.2-33.7,28.7L1033.2,1105.9z"
			/>
	</g>
	<path class="st6" d="M1198,395.5v221l51.8-1.3c0,0,50.8-1.7,79.8,1.3c17.9,1.8,33,7.1,33,7.1l39.1-63c0,0,25.8-48.5,27.8-54.3
		c1.9-5.8,8.1-25.5,8.4-28.8c0-0.3,0.2-25,0-25.5c-3.2-10.6-5.7-14-13.9-22.7c-2.8-3-7.2-6.2-10.3-8.1c-5.4-3.3-31.1-14.5-78.6-21.3
		C1294.7,394.2,1198,395.5,1198,395.5z"/>
	<path class="st6" d="M1340.5,656.2l-1.9,218.5c0,0,43.1-54.7,51.8-68c22.4-34.3,27.8-44.7,39.1-69.6c9.3-20.5,8.6-63.5,8.6-63.5
		l-0.1-221.6c0,0-2.7,41.4-8.7,53c-6.1,11.6-33.4,67.6-40.9,78.5S1340.5,656.2,1340.5,656.2z"/>
	<path class="st6" d="M1438,673.6c0,0-15.3-18.5-26.4-26.5c-13.6-9.9-34.9-18.5-42-21.4c-4.6-1.9-7.7-2.4-7.7-2.4
		s30.9-48.1,40.1-64.8c9.2-16.7,17.6-32.1,28.3-61.5c6-16.5,7.6-44.6,7.6-44.6L1438,673.6z"/>
	<rect x="1247.3" y="526.5" class="st8" width="11.3" height="55.4"/>
	<rect x="1276.7" y="479.8" class="st8" width="11.3" height="102.1"/>
	<rect x="1307.6" y="533.8" class="st8" width="11.3" height="48.1"/>
	<rect x="1335.1" y="472.8" class="st8" width="11.3" height="111"/>
	<rect x="1362.6" y="508" class="st8" width="11.3" height="81.2"/>
	<polygon class="st8" points="1370.8,735.7 1370.8,800.3 1420.5,721.1 1416,668.8 	"/>
	<polygon class="st8" points="1365.9,655.4 1365.9,720.1 1415.7,640.9 1411.2,588.6 	"/>
	<g>
		<path class="st10" d="M791.9,453.7c-8.3-1.8-16.2-5.3-23.1-10.2c-1.8-1.3-3.7-2.7-5.9-2.5c-1.6,0.2-2.9,1.3-4.2,2.3
			c-22,18.8-46.4,44.3-59.2,56.4c-6,5.7-11.6,11.4-17.3,17.6c-3.3,3.6-6.7,7.3-9.5,11.3c-3,4.3-6,8.6-9,12.9
			c-3.5,5-6.7,11.4-8.7,18.1c-2.7,9.1-3.7,26.5,4.7,38.3c12.2,17.3,26.9,29.5,42.1,44.2c-3-8.7-2.2-13.2-4.2-21
			c-3.1-12.5-7.4-25.4-5.3-38.1c1.8-11,9.3-19.8,15.7-28.9c11.5-16.3,25.8-30.7,40-47.3c4.6-5.4,10.5-11.2,15.1-16.6
			c10.2-11.8,23.3-21.9,28.9-36.5"/>
	</g>
	<g>
		<circle class="st3" cx="1229.8" cy="828.9" r="34"/>
		<circle class="st3" cx="1229.8" cy="828.9" r="19.6"/>
		<path class="st11" d="M1196.5,854.8c-0.3-0.1-0.6-0.4-0.7-0.7c-0.3-0.7,0-1.4,0.7-1.7l6.7-2.8c0.7-0.3,1.4,0,1.7,0.7
			c0.3,0.7,0,1.4-0.7,1.7l-6.7,2.8C1197.1,855,1196.8,855,1196.5,854.8z"/>
		<path class="st11" d="M1235.2,870.8c-0.3-0.1-0.6-0.4-0.7-0.7l-2.8-6.8c-0.3-0.7,0-1.4,0.7-1.7c0.7-0.3,1.4,0,1.7,0.7l2.8,6.8
			c0.3,0.7,0,1.4-0.7,1.7C1235.8,870.9,1235.5,870.9,1235.2,870.8z"/>
		<path class="st13" d="M1260.6,816.5c-0.3-0.1-0.6-0.4-0.7-0.7c-0.3-0.7,0-1.4,0.7-1.7l5.1-2.1c0.7-0.3,1.4,0,1.7,0.7
			c0.3,0.7,0,1.4-0.7,1.7l-5.1,2.1C1261.2,816.6,1260.9,816.6,1260.6,816.5z"/>
		<path class="st13" d="M1216.8,798.4c-0.3-0.1-0.6-0.4-0.7-0.7l-2.1-5.1c-0.3-0.7,0-1.4,0.7-1.7s1.4,0,1.7,0.7l2.1,5.1
			c0.3,0.7,0,1.4-0.7,1.7C1217.5,798.5,1217.1,798.5,1216.8,798.4z"/>
		<path class="st1" d="M1215.8,862.8c-18.7-7.7-27.6-29.2-19.9-47.8c7.7-18.7,29.2-27.6,47.8-19.9c18.7,7.7,27.6,29.2,19.9,47.8
			S1234.5,870.5,1215.8,862.8z M1241.8,799.9c-16-6.6-34.4,1-41,17.1c-6.6,16,1,34.4,17.1,41s34.4-1,41-17.1
			C1265.4,824.9,1257.8,806.5,1241.8,799.9z"/>
		<g>
			<path class="st2" d="M1241.3,801c-0.7-0.3-1.4,0-1.7,0.7l-0.5,1.2c-0.3,0.7,0,1.4,0.7,1.7s1.4,0,1.7-0.7l0.5-1.2
				C1242.3,802,1242,801.3,1241.3,801z"/>
			<path class="st2" d="M1219.9,853c-0.7-0.3-1.4,0-1.7,0.7l-0.5,1.2c-0.3,0.7,0,1.4,0.7,1.7c0.7,0.3,1.4,0,1.7-0.7l0.5-1.2
				C1220.9,854,1220.6,853.3,1219.9,853z"/>
			<path class="st2" d="M1257,838.6l-1.2-0.5c-0.7-0.3-1.4,0-1.7,0.7c-0.3,0.7,0,1.4,0.7,1.7l1.2,0.5c0.7,0.3,1.4,0,1.7-0.7
				C1258,839.6,1257.6,838.8,1257,838.6z"/>
			<path class="st2" d="M1205,817.1l-1.2-0.5c-0.7-0.3-1.4,0-1.7,0.7c-0.3,0.7,0,1.4,0.7,1.7l1.2,0.5c0.7,0.3,1.4,0,1.7-0.7
				C1205.9,818.1,1205.6,817.4,1205,817.1z"/>
			<path class="st2" d="M1255.9,816.5l-1.2,0.5c-0.7,0.3-1,1-0.7,1.7c0.1,0.3,0.4,0.6,0.7,0.7c0.3,0.1,0.7,0.1,1,0l1.2-0.5
				c0.7-0.3,1-1,0.7-1.7C1257.4,816.6,1256.6,816.3,1255.9,816.5z"/>
			<path class="st2" d="M1204,838.1l-1.2,0.5c-0.7,0.3-1,1-0.7,1.7c0.1,0.3,0.4,0.6,0.7,0.7s0.7,0.1,1,0l1.2-0.5
				c0.7-0.3,1-1,0.7-1.7S1204.7,837.9,1204,838.1z"/>
			<path class="st2" d="M1241.6,853.7c-0.3-0.7-1-1-1.7-0.7s-1,1-0.7,1.7l0.5,1.2c0.1,0.3,0.4,0.6,0.7,0.7c0.3,0.1,0.7,0.1,1,0
				c0.7-0.3,1-1,0.7-1.7L1241.6,853.7z"/>
			<path class="st2" d="M1220,801.7c-0.3-0.7-1-1-1.7-0.7s-1,1-0.7,1.7l0.5,1.2c0.1,0.3,0.4,0.6,0.7,0.7c0.3,0.1,0.7,0.1,1,0
				c0.7-0.3,1-1,0.7-1.7L1220,801.7z"/>
		</g>
		<path class="st11" d="M1242.6,835.6l-9.7-4c-0.7-0.3-1-1-0.7-1.7c0.3-0.7,1-1,1.7-0.7l9.7,4c0.7,0.3,1,1,0.7,1.7
			C1244,835.6,1243.3,835.9,1242.6,835.6z"/>
		<path class="st11" d="M1230.8,826.5c-0.7-0.3-1-1-0.7-1.7l5.5-13.3c0.3-0.7,1-1,1.7-0.7c0.7,0.3,1,1,0.7,1.7l-5.5,13.3
			C1232.2,826.5,1231.5,826.8,1230.8,826.5z"/>
		<path class="st11" d="M1227.8,833.8c-2.7-1.1-3.9-4.2-2.8-6.8c1.1-2.7,4.2-3.9,6.8-2.8c2.7,1.1,3.9,4.2,2.8,6.8
			C1233.5,833.6,1230.5,834.9,1227.8,833.8z M1230.8,826.5c-1.3-0.6-2.9,0.1-3.4,1.4s0.1,2.9,1.4,3.4c1.3,0.6,2.9-0.1,3.4-1.4
			C1232.8,828.6,1232.1,827.1,1230.8,826.5z"/>
		<path class="st11" d="M1274.7,809.1c2,4.8-0.3,10.2-5,12.2l-7.2-17.2C1267.2,802.1,1272.7,804.4,1274.7,809.1z"/>
		<path class="st11" d="M1212,783.3c-4.8,2-7,7.4-5,12.2l17.2-7.2C1222.2,783.5,1216.7,781.3,1212,783.3z"/>
	</g>
	<g>
		<path class="st4" d="M1098.5,707.3c10.1,1.2,20.2,3.4,29.2,8.3c9,4.9,16.8,12.6,20.3,22.3c2.7,7.5,2.7,15.7,1.9,23.7
			c-0.3,2.9-0.8,5.9-2.7,8c-2.2,2.4-5.6,3-8.7,2.8c-5.8-0.2-11.4-2.6-16.3-5.8c-4.9-3.2-9.2-7.2-13.5-11.3
			c-4.1-3.9-8.2-7.7-12.3-11.6c-2-1.9-4-3.8-5.9-5.9c-2-2.3-3.8-4.7-5.9-6.9c-8.3-8.4-20.7-11-29.6-18.6c-2.4-2-11.2-10-11.9-13.1
			c-0.8-3.6,7.3-1.9,9.6-4.6c3.3-4.1,13.2-10.7,16.3-6.4c1.8,2.5,3.1,3.6,5.6,5.3c3.6,2.4,7.2,4.8,10.8,7.2
			C1090.2,704,1092.9,706.2,1098.5,707.3"/>
	</g>
	<g>
		<path class="st0" d="M1093.3,666c0.3-2.8-0.4-5.6-0.7-8.4s0-5.9,1.9-8c1.8-2,4.7-2.7,7.3-2.2c2.6,0.4,5,1.9,7.1,3.5
			c1.1,0.9,2.1,1.8,3.4,2.3c1.3,0.5,2.7,0.6,4.1,0.7c7.1,0.3,14.2-0.1,21.2-1.4c2.3-0.4,4.6-0.9,6.9-0.6c2.3,0.3,4.6,1.5,5.5,3.7
			c2.4,5.8-6.9,11.5-4.7,17.4c0.8,2.2,3.3,4.2,2.5,6.5c-0.7,2-3.3,2.3-5.3,2.9c-5.4,1.8-7.8,7.8-10.6,12.7c-0.8,1.5-1.8,3-3.3,3.8
			c-0.9,0.5-2,0.7-3.1,0.8c-4.2,0.6-8.4,0.5-12.6,0.6c-4.5,0.1-9.3,0.4-12.9,3.1c-3.2,2.5-4.9,6.6-5.5,10.6c-0.6,4-0.2,8.1-0.2,12.2
			c0,5.6-0.7,11.2-2,16.6c-0.3,1.3-0.7,2.7-1.8,3.4c-0.9,0.6-1.9,0.6-3,0.5c-6.6-0.5-13.6-4.8-17.6-10c-4-5.2-8-10.4-11.7-16
			c-2.5-3.9-5.5-6.5-8-10.3c-0.5-0.8-1-1.6-1-2.5c-0.1-1.7,1.3-3.1,2.5-4.2c5.1-4.4,10.8-8.1,16.9-10.9c3.2-1.5,6.6-2.8,9.2-5.2
			c1.7-1.5,2.9-3.4,4.2-5.3c3.6-5.5,7.3-11.1,10.9-16.6"/>
	</g>
	<g>
		<path class="st4" d="M1110.1,656.2c-1.7-3.1-3.9-6.1-7.1-7.5c-3.2-1.4-7.4-0.5-9,2.6c-2.2,4.2,1.4,9.2,1.3,14
			c-0.2,5.7-5.3,9.6-10,12.6c-2.1,1.4-4.7,2.8-7,1.7c-2.4-1.2-3.1-4.6-5.5-5.8c-3.2-1.6-6.8,2.2-6.8,5.9s3,8.5,4.1,10
			c0.5,0.7,0.7,0.7,1.6,1.6c0.6,0.6-2,2.4-2.6,3c-3.6,3.5-7.4,6.7-11.5,9.6c-3,2.2-6.8,4.2-10.2,2.7c-2.6-1.1-4-4-4.9-6.7
			c-2.9-8.7-3.1-18.4,0.3-26.9c3.3-8.5,10.3-15.6,18.9-18.1c1.9-0.6,3.9-1,5.4-2.3c2.2-2,2.5-5.4,2.8-8.4
			c1.1-10.2,4.6-20.1,10.1-28.6c2.4-3.6,5.2-7.1,8.7-9.5c4.3-3,9.5-4.4,14.6-5.4c4.7-0.9,9.4-1.6,14.2-1.4
			c11.7,0.3,23.1,5.3,31.4,13.7c3.1,3.1,5.8,6.8,7.4,10.9c4,10,1.8,21.3-0.5,31.9c-0.4,1.7-0.8,3.5-1.7,5s-2.6,2.6-4.3,2.5
			c-0.1-3.4-0.4-7.4-3.3-9.1c-1.1-0.7-2.3-0.9-3.5-1C1131.5,651.8,1121.6,658,1110.1,656.2"/>
	</g>
	<g>
		<path class="st0" d="M1100.3,747.5c4.3,10,6,16.7,8.5,27.2c1,4.2,2.2,4.8,4.6,8.5c3.7,5.9,10.9,8.8,17.9,9.2s11.9,0,18.6-1.7
			c6.3-1.7,13.4-2.7,19.7-4.4c4.9-1.3,10.5-1.8,15.6-1.2c3.2,0.4,6.7,2,9.6,3.4c4.6,2.1,9.7,4.7,17.6,2.6c1.1-0.3,1.5-1.5,0.6-2.2
			c-1.6-1.2-6.1-4.1-7.7-5.4c4.3-1.9,8.9,1.2,13.4,2.2c4.8,1,5.8,1,7.9,0.7c2.4-0.3,3.2-1.7,3.5-3c0.3-1.3-0.2-3.3-1.3-4.6
			c-1.9-2.4-5.1-5.6-14.7-7.1c-9.6-1.4-19.4-0.4-29,0c-16.4,0.7-32.8-0.4-49.1-1.3c-6.1-0.3-12-2.5-16.9-6.3
			c-7.4-5.9-13.8-11.9-19.4-17.7L1100.3,747.5z"/>
	</g>
	<g>
		<path class="st2" d="M1088.6,841.6c-3.3,4.3-5.8,9.2-7.5,14.3l-2.5,7.3c-0.3,0.8-0.6,1.6-1.3,2.1c-0.5,0.3-1.1,0.5-1.7,0.6
			c-25.9,4.2-53.8-9.4-66.1-32.2c-1.1-2-2.1-4.2-2.4-6.5c-0.5-3.2,0.5-6.5,1.2-9.7c1.9-7.6,2.9-15.4,3.1-23.3
			c0.3-11.5-2-23.1-1-34.6c1.1-12.3,3.6-21,7.7-32l0.7-1.3c3.3-8.1,11.8-17.6,26.2-19.2c1.1-0.1,2.2-0.3,3.3,0
			c1.4,0.5,2.4,1.7,3.2,2.9c4.3,5.9,8.6,11.8,12.9,17.7c2.6,3.6,5.3,7.3,8.7,10.3c2.1,1.8,4.5,3.3,6.9,4.8c2.5,1.5,5.1,3.1,8,3
			c2.9-0.1,5-3.7,4.3-6.4c3.2,0,6.2,4.2,7.6,7c3.7,7.4,7,15,9.9,22.8c5,13.6,8.4,29.4,1.3,42.1L1088.6,841.6z"/>
	</g>
	<path class="st6" d="M259.4,127.5V312c0,0,52.1-3.3,78.5-11.7c47.9-15.2,76.6-32.8,94.5-45.3c7-4.9,19-13.6,26.8-19.7
		c8.2-6.4,14.1-10.9,18.3-14.5c14.4-12.3,22.9-21.4,49.5-19.5c34.5,2.4,115,37.6,115,37.6s80.9,33.2,103,39
		c20.7,5.4,92.2,22.4,131.3,28.5c33.9,5.3,67.7,4.8,67.7,4.8V133.8c0,0-33.3-7.5-89.1-19.3c-40.6-8.6-103.4-32.7-151.1-60.1
		C655.9,26.9,599.2,0,548.7,0c-54.8,0-89,20.6-108.5,29.1C411.2,41.6,259.4,127.5,259.4,127.5z"/>
	<path class="st14" d="M364.4,96.3v76.9c0,0,47.2-22.6,64.6-35.5c17.4-12.9,50.7-42.3,60.7-45.5c10-3.2,26.5-12.9,41.1-11.3
		s36.5,17.1,36.5,17.1V55.6"/>
	<line class="st14" x1="538.8" y1="48.5" x2="538.8" y2="82.8"/>
	<line class="st14" x1="510.4" y1="41.4" x2="510.4" y2="82.8"/>
	<line class="st14" x1="479.7" y1="68.7" x2="479.7" y2="97.5"/>
	<line class="st14" x1="452.3" y1="66.4" x2="452.3" y2="119.2"/>
	<line class="st14" x1="427.1" y1="124.8" x2="427.1" y2="139.1"/>
	<line class="st14" x1="399" y1="108.6" x2="399" y2="155.6"/>
	<polyline class="st16" points="370.9,160.5 399,108.6 427.1,127.5 452.3,66.4 482.3,68.9 509.9,39.8 538.5,48.5 560.4,76.1 	"/>
	<path class="st14" d="M364.4,194.4v76.9c0,0,47.2-22.6,64.6-35.5c17.4-12.9,50.7-42.3,60.7-45.5c10-3.2,26.5-12.9,41.1-11.3
		s36.5,17.1,36.5,17.1v-42.3"/>
	<line class="st14" x1="538.8" y1="146.6" x2="538.8" y2="180.8"/>
	<line class="st14" x1="510.4" y1="139.5" x2="510.4" y2="180.8"/>
	<line class="st14" x1="479.7" y1="166.7" x2="479.7" y2="195.6"/>
	<line class="st14" x1="452.3" y1="164.5" x2="452.3" y2="217.3"/>
	<line class="st14" x1="427.1" y1="222.8" x2="427.1" y2="237.1"/>
	<line class="st14" x1="399" y1="206.7" x2="399" y2="253.7"/>
	<polyline class="st16" points="370.9,258.5 399,206.7 427.1,225.5 452.3,164.5 482.3,166.9 509.9,137.8 538.5,146.6 560.4,174.2 	
		"/>
	<polygon class="st1" points="554.7,190.7 607.2,204.6 547.5,326.7 455.8,301.8 	"/>
	<path class="st3" d="M432.3,280.7l-5.3,11.7c0,0,23.3,18.7,26.5,18.7s33.9-20.3,33.9-20.3s15.8,7.8,20.4,8.7s20.4,1.6,23.9,1.3
		c3.6-0.3,31.3-24.2,33.3-26.8c1.9-2.6,15.5-21.3,15.5-21.3l-40.4-35.9l-75.3,34.6L432.3,280.7z"/>
	<polygon class="st2" points="498.3,158 427.1,281.6 524.5,265.1 601.9,127.5 	"/>
	<path class="st17" d="M452.3,311l35.1-22.5c0,0,20.1,9.8,24.5,10.2c4.4,0.4,21.3,0.9,21.3,0.9s-7,5.2-12.5,7.2
		c-5.5,2-32.6,5.2-38.3,5.2S452.3,311,452.3,311z"/>
	<polygon class="st18" points="603.8,55.6 603.8,114.4 685.8,151.7 685.8,95 	"/>
	<polygon class="st18" points="603.8,136.7 603.8,195.5 685.8,232.8 685.8,176.1 	"/>
	<polygon class="st18" points="833.9,138.1 930.3,159.5 930.3,308.1 833.9,238.6 	"/>
	<g>
		<path class="st0" d="M584.9,271.3c-2.1-2.4-4.5-4.4-6.6-6.7c-3.4-3.7-6.1-8.4-10.8-10.1c-1.3-0.5-2.7-0.6-3.9,0
			c-1.4,0.8-2,2.7-1.7,4.3c0.3,1.6,1.2,3.1,2.2,4.4c1.3,1.9,2.6,3.8,3.8,5.7c1,1.5,2,3,2.5,4.8c1.2,4.3-0.9,8.7-3,12.6
			c-1.8,3.3-3.6,6.7-5.4,10c-1,1.9-2,4-1.5,6c0.3,1.2,1.1,2.3,2,3.2c6.9,7.7,16.3,13,26.4,14.9c1.1,0.2,2.2,0.4,3.2,0
			c0.8-0.3,1.6-0.8,2.2-1.4c6-6.4,8.1-11.3,11.4-18.5l-0.9-1.3c-1.2-2.5-2.4-5-3.6-7.6c-0.8-1.6-1.6-3.3-2.6-4.7
			c-1.1-1.5-6.3-8.1-7.7-9.5L584.9,271.3z"/>
	</g>
	<g>
		<path class="st0" d="M1070,386.9c3.6-0.1,7.1,0.8,10.6,1.7c5.6,1.4,11.1,2.9,16.4,5.1c1.8,0.8,3.6,1.7,5.1,2.9
			c1.2,1,2.2,2.3,3.2,3.6c3.6,4.7,6.8,9.8,9.1,15.3c2.3,5.5,3.5,11.5,3.1,17.4c-0.1,1.6-0.4,3.3-1.1,4.7c-0.7,1.5-2.1,2.7-3.7,3
			c-2.2,0.4-4.2-0.9-6-2.2c-4.3-3.2-8-7.2-11.1-11.6c-1.6-2.2-3-4.7-5.2-6.2c-0.4-0.3-0.8-0.5-1.2-0.3c-0.2,0.1-0.4,0.3-0.5,0.5
			c-0.6,1.3-0.1,2.8,0.5,4.1c0.5,1.2,1,2.3,1.5,3.5c0.5,1.2,0.8,2.9-0.4,3.4c-0.9,0.4-1.8-0.4-2.5-1c-3.9-3.9-7.7-7.7-11.6-11.6
			c-2.1-2.1-4.1-4.1-6.5-5.8c-2.3-1.6-5-3.1-5.8-5.7c-0.5-1.5-0.1-3.1,0.1-4.6c0.9-5.9,2-9,5.1-14.9L1070,386.9z"/>
	</g>
	<g>
		<path class="st3" d="M1056.1,377c0.5-2.2,0.9-3.4,1.6-5c0.3-0.8,0.8-1.7,1.7-2c0.7-0.2,1.5,0,2.1,0.3c2.7,1,5.5,2.1,8.2,3.1
			c2.2,0.8,4.7,2,5.4,4.2c0.5,1.5-0.1,3.2-0.6,4.7c-3.6,10.1-7.1,20.1-10.7,30.2c-0.2,0.5-0.4,1.1-0.9,1.4c-0.4,0.2-0.9,0.2-1.4,0.1
			c-2.2-0.3-4.4-0.6-6.5-0.8c-0.9-0.1-1.8-0.2-2.4-0.8c-0.9-0.8-1-2.1-1-3.3c0.2-11.5,1.1-14.9,3.4-26.5L1056.1,377z"/>
	</g>
	<g>
		<path class="st3" d="M625.9,294.4c-8.7,13.4-16.4,24-23.1,37.1c-1.3,2.5-3.1,5.4-6,5.5c-1.2,0-2.4-0.5-3.5-0.9
			c-1.8-0.8-3.7-1.6-5.1-2.9c-1.5-1.3-2.6-3.1-2.4-5c0.1-1.7,1.2-3.2,2.3-4.6c5-6.7,10-13.3,15-20c2.3-3,4.6-6.1,7.8-8.1
			c4.1-2.5,7.8-3.2,13-1.8L625.9,294.4z"/>
	</g>
	<g>
		<path class="st11" d="M856.8,473.2c6,25.1,11.9,44.2,18.2,69.1c9.4-6.9,18.8-13.8,28.2-20.7c7.6-5.6,15.3-11.3,21-18.9
			c12.5-16.7,13-39.4,9.7-60c-3.3-20.6-9.8-40.8-9.5-61.6c0-0.9,0.1-1.8,0.6-2.6c1.7-2.4,5.3,0,7.4,2.1c7.7,8.1,18.9,11.8,29.8,14.3
			c11.9,2.7,23.9,4.5,36,6.2c16.5,2.4,33.1,4.7,49.6,7.1c2.2,0.3,4.8,0.5,6.5-1c1.1-1,1.5-2.6,1.9-4c1.9-7.7,3.8-15.4,5.6-23.1
			c0.4-1.5,0.7-3.1,0.3-4.6c-0.8-2.9-3.9-4.3-6.7-5.3c-19-7-37.9-14-56.9-21c-23.9-8.8-48.6-18.2-66.4-36.4
			c-10.4-10.7-17.9-23.9-28.1-34.8c-17.8-18.8-42.6-29-66.7-38.6c-1.1-0.5-2.5-0.9-3.6-0.2c-0.8,0.5-1.1,1.6-1.3,2.5
			c-17,75.5,1,154.2,23.8,228.1L856.8,473.2z"/>
	</g>
	<g>
		<path class="st11" d="M772.7,262.3c0.1,13.4,3.1,21.3,8.1,33.8c14,34.7,17.2,73.8,6.6,109.5c-2.9,9.8-7.1,19.8-15.5,25.8
			c-6.9,5-15.7,6.6-23.5,10.2c-12.2,5.6-21.8,16.1-34.7,20.3c-0.4-1.3,0-2.7,0.4-4.1c3.1-9.9,11.3-17.4,19.9-23.4
			s17.9-11.3,25.1-18.9c11.4-12.1,15.9-28.9,17.5-45.2c1-10.9,0.9-21.9-0.4-32.8c-0.4-3.5-1.9-7.9-5.6-8c-1.5-0.1-2.9,0.7-4.2,1.5
			c-23.2,13.6-46.9,26.4-71.1,38.3c-2.2,1.1-4.6,2.2-7,2.1c-2.2-0.1-4.2-1.1-6.2-2.1c-26.8-13.6-53.5-27.1-80.3-40.7
			c5.7-10.3,11.5-20.7,17.2-31c0.4-0.8,0.9-1.6,1.8-2c0.9-0.4,2-0.1,3,0.3c16.1,5.7,32.2,11.2,48.4,16.6c4.7,1.6,9.6,3.1,14.6,2.8
			c5.2-0.4,10-2.8,14.5-5.3c26.6-14.6,50.7-33.3,71.4-55.2L772.7,262.3z"/>
	</g>
	<g>
		<path class="st3" d="M819.5,240.1c3.4-3.2,6.5-4.9,10.8-4.4c1,0.1,3.4,2,3.5,3c0.8,13.2,0.3,26.5-1.5,39.7c-1,7.4-2.1,15-2.1,22.4
			c0.1,7.9-0.2,17.2,0.6,25c1,10.1,2,18.6,3.3,28.6c1.2,9,2.9,18.2,5.3,27c5.4,19.5,10.4,38.7,14.5,58.5c2.3,11.1,4.7,22.4,4.4,33.7
			c-8.5-2-16.8-4.8-24.8-8.4c-6.8-3.1-13.5-6.7-21-7.2c-4.2-0.3-8.4,0.5-12.6,0.7c-17.9,1-36.1-8.1-45.1-22.7
			c-0.5-0.8-0.9-1.6-0.7-2.5c0.3-1,1.4-1.6,2.4-2.2c8.7-4.5,16.2-11,21.6-18.8c11.2-16.2,12.9-36.6,11.9-55.9
			c-1.7-30.9-9.6-61.5-23.1-89.7c-1.7-3.6-2.7-2.7-1.5-6.5c1.6-5.5,4.5-6.9,8.7-7.3c3.3-0.3,4.2-0.4,6.5,3.1
			c3.8,5.8,9.9,10.6,17.1,11.8c1.3,0.2,2.7,0.3,4-0.2c1.5-0.6,2.5-2,3.4-3.4C811.5,254.8,813.1,249.9,819.5,240.1"/>
	</g>
	<g>
		<path class="st0" d="M801.2,270.9c2.4,0.2,4.9-0.8,6.4-2.7c7.1-9,11.8-19.7,14.3-31.1c0.6-2.7,1-5.6,0.2-8.2c-1.1-3.5-4.2-6-6.3-9
			c-2.9-4.1-4.1-9.5-3.2-14.5c0.5-2.8,1.7-5.7,0.8-8.5c-0.4-1.2-1.2-2.2-2.1-3.1c-1.7-1.6-3.8-2.6-6-3c-1.2-0.2-2.7-0.1-3.4,1
			c-0.3,0.5-0.3,1.2-0.6,1.7c-0.3,0.5-0.8,0.9-1.3,1.2c-6.3,3.9-14.5,2.1-21.2-1c-6.7-3.1-13-7.5-20.3-8.8c-2.3-0.4-4.9-0.5-6.8,0.9
			c-1.3,0.9-2.2,2.3-2.8,3.7c-1.5,3.4-1.8,7.2-1,10.9c1.8,9,7.9,15.7,12.1,23.4c2.7,4.9,4.9,10.5,9.6,13.4c3,1.8,7,2.5,8.4,5.7
			c1,2.3,0.1,4.9,0.2,7.5c0.1,3,1.7,5.9,3.7,8.2s4.5,4.1,6.8,6.1c1.6,1.4,3.2,2.8,4.9,4.1c1.6,1.2,3.6,1.9,5.6,2L801.2,270.9z"/>
	</g>
	<g>
		<path class="st4" d="M748.3,207.4c-3.8-7.4-7.5-14.9-11.3-22.3c-0.9-1.7-1.8-3.5-2.2-5.4c-0.7-3.2,0-6.8,2-9.5
			c1.5-2.1,3.7-3.6,5.8-5.1c5.6-3.9,11.1-7.8,16.7-11.7c4.8-3.3,9.5-6.7,14.9-9c5.3-2.3,11.3-3.5,17-2.4c3.4,0.7,6.6,2.1,9.7,3.7
			c3.9,2,7.7,4.4,11.1,7.2c6.2,5.4,10.7,12.7,13.3,20.5s3.6,16.1,3.6,24.4c0,8.7-1.1,17.6-4.4,25.7c-0.7,1.8-1.9,3.9-3.8,4.2
			c-1.8,0.3-3.5-1.1-4.7-2.5c-2.2-2.5-3.9-5.4-5.1-8.5c-0.9-2.5-1.5-5.4-0.7-8c0.9-3,3.5-5.6,3.3-8.8c-0.2-2.8-2.6-5-5.1-6.3
			c-2.7-1.3-6.3-1.8-8.4,0.4c-0.6,0.7-1,1.5-1.6,2.2c-1.7,1.8-4.5,1.7-7,1.4c-4.3-0.4-8.6-0.9-12.7-2.3c-7.5-2.6-14.2-8.4-22.1-8.2
			c-2.7,0.1-5.6,1-7.1,3.4c-1.2,2-1.1,4.4-1,6.7c0.2,3.7,0.5,7.5,0.7,11.2L748.3,207.4z"/>
	</g>
	<g>
		<polygon class="st0" points="1297.5,157.9 1289,220 1161.3,228 1175.4,125.8 		"/>
		<g class="st19">
			<g>
				<path class="st11" d="M1187.3,152.5c18.6,2.7,37.2,5.3,55.8,8c0.3,0,0.5-0.4,0.1-0.5c-18.6-2.7-37.2-5.3-55.8-8
					C1187.1,152,1187,152.5,1187.3,152.5L1187.3,152.5z"/>
			</g>
		</g>
		<g class="st19">
			<g>
				<path class="st11" d="M1186.3,160.1c18.6,2.7,37.2,5.3,55.8,8c0.3,0,0.5-0.4,0.1-0.5c-18.6-2.7-37.2-5.3-55.8-8
					C1186.1,159.6,1185.9,160,1186.3,160.1L1186.3,160.1z"/>
			</g>
		</g>
		<g class="st19">
			<g>
				<path class="st11" d="M1185.2,167.6c18.6,2.7,37.2,5.3,55.8,8c0.3,0,0.5-0.4,0.1-0.5c-18.6-2.7-37.2-5.3-55.8-8
					C1185,167.1,1184.9,167.6,1185.2,167.6L1185.2,167.6z"/>
			</g>
		</g>
		<g class="st19">
			<g>
				<path class="st11" d="M1184.2,175.2c18.6,2.7,37.2,5.3,55.8,8c0.3,0,0.5-0.4,0.1-0.5c-18.6-2.7-37.2-5.3-55.8-8
					C1184,174.7,1183.9,175.2,1184.2,175.2L1184.2,175.2z"/>
			</g>
		</g>
		<path class="st11" d="M1132.6,230.4c0,0,130.3-64.6,131.8-64.8s25.1,55,25.1,55L1132.6,230.4z"/>
	</g>
	<g>
		<path class="st0" d="M20.9,885.3c0,0,30.6,8.7,33.4,8.7s13.4-0.6,19.7-3.8c6.3-3.1,34.7-17.1,34.7-17.1l-69,79.3
			c0,0-3.7,2.9-7.9,3.2c-2.8,0.2-31.6-1.5-31.6-1.5L20.9,885.3z"/>
		<path class="st2" d="M35.1,909.3c0,0,7.3,7.3,8.7,14.6s-2.1,24-4.3,28.5c-2.3,4.5,68.3-79.3,68.3-79.3L35.1,909.3z"/>
		<g class="st19">
			<g>
				<path class="st2" d="M21.3,913c-3.8,11.5-7.3,23.1-10.4,34.8c-0.1,0.3,0.4,0.4,0.5,0.1c3.2-11.7,6.6-23.3,10.4-34.8
					C21.8,912.9,21.4,912.7,21.3,913L21.3,913z"/>
			</g>
		</g>
		<g class="st19">
			<g>
				<path class="st2" d="M26.7,913.8c-3.8,11.5-7.3,23.1-10.4,34.8c-0.1,0.3,0.4,0.4,0.5,0.1c3.2-11.7,6.6-23.3,10.4-34.8
					C27.3,913.6,26.8,913.5,26.7,913.8L26.7,913.8z"/>
			</g>
		</g>
		<g class="st19">
			<g>
				<path class="st2" d="M31.9,914.3c-3.8,11.5-7.3,23.1-10.4,34.8c-0.1,0.3,0.4,0.4,0.5,0.1c3.2-11.7,6.6-23.3,10.4-34.8
					C32.5,914.2,32,914,31.9,914.3L31.9,914.3z"/>
			</g>
		</g>
		<g class="st19">
			<g>
				<path class="st2" d="M37.5,915.4c-3.8,11.5-7.3,23.1-10.4,34.8c-0.1,0.3,0.4,0.4,0.5,0.1c3.2-11.7,6.6-23.3,10.4-34.8
					C38.1,915.3,37.6,915.1,37.5,915.4L37.5,915.4z"/>
			</g>
		</g>
	</g>
	<g>
		<path class="st2" d="M796,273.8c2.8-2.7,7.2-3.7,10.7-2.1c3.5,1.6,5.1,5.8,3.7,9.4c-0.4,1.1-1.1,2.2-1.6,3.2
			c-2.7,5.2-1,11.5,0.1,17.3c3.3,17.9-1,45.2-4.7,52.7c-1.9,3.9-4.4,6.7-7.4,8.6c-3.6,2.2-5.3,3.5-7.9,4.8c-6.6,3.4-11.6,4.7-19,5.7
			c-2,0.3-4.2,0.5-5.8,1.7c-2.5,1.9-4.4,4.8-4.8,7.9c-0.5,4-0.2,8-0.7,12.1c-0.3,2.8-0.9,6.1-1.9,8.8c-1.8,4.7-2.5,6-5.1,9.6
			c-0.4,0.6-3.2,2.9-5,3.3c-1.8,0.4-4.8,0.4-8.2-0.3c-2.3-0.5-4.2-1.4-6.1-3c-2.6-2.3-5.1-7.1-5.7-10.5c-1.2-6.9-1.5-13.8,0.5-19.9
			c1.4-4.4,3.3-7.9,5.4-10.9c2.7-3.8,5.5-5.9,8.9-7.9c5.5-3.2,11.5-3.9,18-4.7c5.5-0.7,11.1-1.9,16.3-3.8
			c16-5.7,26.5-21.2,26.9-38.2c0.1-4.8-0.1-9.5-0.8-14.4c-0.7-5.3,0.2-11.2-2.5-15.7c-1.4-2.3-4.4-3.9-5.5-6.4c-1-2.5,0-5.5,1.9-7
			L796,273.8z"/>
	</g>
	<g>
		<path class="st0" d="M698.9,1197.5l-77.9-49.8l-54.3,99.2c0,0,7.4-3.5,19.5-0.7s40.3,19.3,45.7,28.5c2.3,3.9,6.1,12.1,6.1,12.1
			L698.9,1197.5z"/>
		<g class="st19">
			<g>
				<path class="st5" d="M617.9,1186c-9.2,14.1-18.7,28-26.6,42.9c-0.2,0.3,0.3,0.5,0.4,0.3c7.9-14.8,17.4-28.8,26.6-42.9
					C618.5,1186,618,1185.8,617.9,1186L617.9,1186z"/>
			</g>
		</g>
		<g class="st19">
			<g>
				<path class="st5" d="M627.1,1190.9c-9.2,14.1-18.7,28-26.6,42.9c-0.2,0.3,0.3,0.5,0.4,0.3c7.9-14.8,17.4-28.8,26.6-42.9
					C627.7,1190.9,627.2,1190.6,627.1,1190.9L627.1,1190.9z"/>
			</g>
		</g>
		<g class="st19">
			<g>
				<path class="st5" d="M636.7,1195.7c-9.2,14.1-18.7,28-26.6,42.9c-0.2,0.3,0.3,0.5,0.4,0.3c7.9-14.8,17.4-28.8,26.6-42.9
					C637.3,1195.7,636.8,1195.4,636.7,1195.7L636.7,1195.7z"/>
			</g>
		</g>
		<g class="st19">
			<g>
				<path class="st5" d="M645.9,1201.2c-9.2,14.1-18.7,28-26.6,42.9c-0.2,0.3,0.3,0.5,0.4,0.3c7.9-14.8,17.4-28.8,26.6-42.9
					C646.5,1201.2,646,1201,645.9,1201.2L645.9,1201.2z"/>
			</g>
		</g>
		<g class="st19">
			<g>
				<path class="st5" d="M655.5,1207.5c-9.2,14.1-18.7,28-26.6,42.9c-0.2,0.3,0.3,0.5,0.4,0.3c7.9-14.8,17.4-28.8,26.6-42.9
					C656.2,1207.5,655.7,1207.2,655.5,1207.5L655.5,1207.5z"/>
			</g>
		</g>
		<path class="st5" d="M629.2,1259.2c0,0,6.3,7.3,8.7,14.1c2.4,6.8,0,13.6,0,13.6l80-81.6l-5.3-19.8L629.2,1259.2z"/>
	</g>
	<g>
		<path class="st0" d="M1039.6,712.8c3.8,1.2,7.5,4.6,11,8.8c23.2,28.7,31.9,61.1,52.7,91.7c3.5,5.1,7.7,9.9,12.8,13.6
			c3.7,2.7,7.8,4.8,11.9,6.8c15.5,7.7,31,15.5,46.5,23.2c4,2,8,4,12.4,4.8c8.3,1.5,13.7-7.6,23.6-6.7c3,0.3,3.4-0.8,3.9,1.7
			c0.5,2.4-2.4,2.8-2.4,2.8c-1.7,1.3-3.3,4.2-2.9,6.3c0.3,1.4,1.7,2.3,3.1,2.8c10.7,4.3,22.8-0.9,34.3-0.6c1.2,0,2.5,0.2,3.1,1.2
			c0.7,1.1-0.1,2.6-0.9,3.6c-7.2,8.8-19.9,12-31.6,11.3s-22.8-4.6-34-7.7c-22.7-6.2-46.4-9-68.4-17c-6.6-2.4-13.1-5.3-18.7-9.5
			c-5.3-4-9.6-9-13.7-14c-13.3-16-25.7-32.8-37.1-50.1c-9-13.6-17.4-28-20.7-43.8c-1.2-6-1.6-12.4,0.6-18.1s7.6-10.7,13.9-11.1
			L1039.6,712.8z"/>
	</g>
	<g>
		<path class="st11" d="M1007,826c-13,20.9-23.4,37.2-31.8,60.4c-8.4,23.2-11.5,33.4-8.1,56.9c5,34.3,8.1,55.5,6.7,65.2
			c-2.2,15.4-8.1,26.8-6.7,36.5c1.3,8.3,8.5,11,14.4,13.4c7.9,3.3,16.9,3.3,23.3,3.9c7.7,0.8,15.8,3.4,21,9.1
			c3.8,4.1,4,10.3,6.3,15.3c3.2,6.9,10.4,11.2,17.8,12.6c7.4,1.4,15.1,0.1,22.4-1.8c22.8-6,45.5-16.7,60.8-34.8
			c4.3-5,10.3-8.3,16.9-8.7c6.9-0.5,13.3-0.7,19.7,2c3.4,1.4,7.1,2.3,10.7,1.8c12.7-1.6,13.8-13.7,13.9-23.7c0-10.8,0-22-4.3-32
			c-3.8-8.8-10.5-15.9-17.1-22.8c-26.9-28.2-53.8-56.4-80.8-84.6c-5.9-6.2-12-12.8-13.9-21.1c-0.8-3.6,0.6-7.3,0.2-10.3
			c-0.3-2.3-25.9-6.9-36.9-14.7c-7.7-5.4-3.4-5.1-22-16.5c-0.8-0.5-7.1-3.6-8-3.9L1007,826z"/>
	</g>
	<path class="st6" d="M647.1,830.9v185.4c0,0,157.1,163.5,162.2,168s68.5,72.5,117.9,96.9c53.1,26.2,97.6,38.9,146,37.9
		c48.4-1,115.2-30.4,155-68.7s62.5-76.3,62.5-76.3l-2.9-190.9c0,0-57.2,66.3-87.3,90.5c-30.9,24.8-58.9,41.7-95.4,49.6
		c-37.4,8.1-88.4,11.4-141.5-12.1c-61.7-27.4-126-91.5-181.2-148.3C725.6,904.7,647.1,830.9,647.1,830.9z"/>
	<g class="st9">
		<g>
			<path class="st4" d="M918.5,1208.1c23.1,9.7,46.8,17.8,71,24.3c0.6,0.2,0.9-0.8,0.3-1c-24.2-6.5-47.9-14.6-71-24.3
				C918.2,1206.9,917.9,1207.9,918.5,1208.1L918.5,1208.1z"/>
		</g>
	</g>
	<g class="st9">
		<g>
			<path class="st4" d="M918.5,1217.7c23.1,9.7,46.8,17.8,71,24.3c0.6,0.2,0.9-0.8,0.3-1c-24.2-6.5-47.9-14.6-71-24.3
				C918.2,1216.5,917.9,1217.5,918.5,1217.7L918.5,1217.7z"/>
		</g>
	</g>
	<g class="st9">
		<g>
			<path class="st4" d="M918.5,1226.7c23.1,9.7,46.8,17.8,71,24.3c0.6,0.2,0.9-0.8,0.3-1c-24.2-6.5-47.9-14.6-71-24.3
				C918.2,1225.5,917.9,1226.5,918.5,1226.7L918.5,1226.7z"/>
		</g>
	</g>
	<g class="st9">
		<g>
			<path class="st4" d="M918.5,1235.2c23.1,9.7,46.8,17.8,71,24.3c0.6,0.2,0.9-0.8,0.3-1c-24.2-6.5-47.9-14.6-71-24.3
				C918.2,1234,917.9,1234.9,918.5,1235.2L918.5,1235.2z"/>
		</g>
	</g>
	<path class="st8" d="M904.7,1204.6c0,11-4,20.6-11.8,20.6s-13.9-12.9-13.9-23.9s3.4-17.3,11.1-17.3
		C897.9,1184,904.7,1193.6,904.7,1204.6z"/>
	<polyline class="st14" points="673.9,880.4 671.9,1012.2 834.8,1184 834.8,1091.3 	"/>
	<line class="st14" x1="712.5" y1="980.1" x2="712.5" y2="1055"/>
	<line class="st14" x1="745.9" y1="959.5" x2="745.9" y2="1090.3"/>
	<line class="st14" x1="777.4" y1="1023.9" x2="777.4" y2="1123.3"/>
	<line class="st14" x1="808.4" y1="1027.8" x2="808.4" y2="1156.2"/>
	<g class="st9">
		<g>
			<path class="st4" d="M658,980.4c4.9,7.6,13.4,14.7,23,13c9.1-1.7,16.7-12.4,26.5-10c5.2,1.3,8.4,6,10.8,10.4
				c2.9,5.5,5.2,11.5,7.5,17.3c2.4,6.1,4.6,12.2,6.7,18.3c1.8,5.3,3.1,10.9,6.1,15.7c4.6,7.3,14.6,10.8,20.4,2.8
				c2.9-4,3.6-8.9,4.4-13.6c0.5-3,1.2-6,2.7-8.6c2.3-4.1,6.4-4.5,10.1-1.9c8.9,6.2,10.3,18.7,14.3,28c2.1,4.8,4.8,9.5,8.7,12.9
				c4.2,3.7,9.3,6.1,13.1,10.3c15,16.4,12,46.4,34.2,56.9c0.6,0.3,1.1-0.6,0.5-0.9c-19.8-9.3-19.6-35.4-30.2-51.8
				c-2.6-4.1-6-7.4-9.9-10.2c-5.1-3.6-9.6-6.8-12.8-12.3c-5.3-9.1-6.2-20.3-12.5-28.8c-2.3-3.2-6-6.9-10.3-6.9
				c-4.4,0-6.5,4.5-7.6,8.2c-1.6,5.2-1.5,10.9-4,15.9c-2.9,5.8-8.8,8.3-14.6,5c-5.5-3.2-7.7-9.4-9.6-15.2c-2-6.2-4.1-12.3-6.4-18.3
				c-2.1-5.7-4.4-11.3-6.9-16.9c-1.9-4.4-3.8-8.8-7-12.5c-3.1-3.6-7.4-5.7-12.1-5.1c-4.6,0.6-8.5,3.4-12.4,5.8
				c-5.2,3.2-10.7,5.8-17,4.1c-6.3-1.8-11.3-6.7-14.8-12.1C658.5,979.3,657.7,979.8,658,980.4L658,980.4z"/>
		</g>
	</g>
	<g class="st9">
		<g>
			<path class="st4" d="M656.8,914.8c24.3,13,28,43,36.5,66.3c3.6,9.8,9.3,21.5,21.1,22.7c9.6,1,14.9-7.7,21.3-13.2
				c4.2-3.7,9.6-5.4,14.5-1.8c5.7,4.1,6.8,11.7,8.1,18.1c1.4,7.1,2.8,14.2,4.4,21.3c1.2,5.5,3.1,11.1,7.2,15.1
				c3.4,3.3,8,5.1,12.7,4.1c5.5-1.2,10-5.6,15.7-6c6.5-0.4,10.5,5.7,13.1,10.8c3,6,5.1,12.4,6.8,18.9c6.6,25.5,7.2,56.2,28.7,74.8
				c0.5,0.4,1.2-0.3,0.7-0.7c-19.6-17-21.7-44.6-27-68.3c-1.5-6.6-3.2-13.1-5.7-19.4c-1.9-4.8-4.2-10.1-8-13.7
				c-3.6-3.4-8.1-4.1-12.6-2.5c-5,1.8-9.7,5.8-15.3,5.3c-7.5-0.7-12-7.8-14-14.3c-2-6.5-3-13.3-4.3-19.9
				c-1.8-9.1-3.3-26.2-15.8-26.7c-8.7-0.4-13.8,9.5-20,14c-5,3.7-11,3.9-16.4,1c-6.2-3.3-9.8-9.7-12.4-15.9
				c-10.1-24.5-12.5-57.1-38.6-71C656.7,913.7,656.2,914.5,656.8,914.8L656.8,914.8z"/>
		</g>
	</g>
	<path class="st8" d="M1183.6,1115.2c0,0-42.3,19.4-43.2,21.4c-1,1.9-3.4,7.4-1.3,10.8c2.1,3.4,4.8,4.5,7.3,4.7s26.2-12,26.2-12
		l15.7-10.1l-2.4-7.9L1183.6,1115.2z"/>
	<path class="st20" d="M1193.1,1123.7c-0.7,2.4-4.2,7.2-7.9,7.6c-1.8,0.2-5.4,0.2-6.1-3.5c-1.7-10.3,5.7-14.9,11.1-14.9
		C1193,1113,1195.1,1116.7,1193.1,1123.7z"/>
	<path class="st8" d="M1183.6,1143.3c0,0-42.3,19.4-43.2,21.4c-1,1.9-3.4,7.4-1.3,10.8c2.1,3.4,4.8,4.5,7.3,4.7s26.2-12,26.2-12
		l15.7-10.1l-2.4-7.9L1183.6,1143.3z"/>
	<path class="st20" d="M1193.1,1151.8c-0.7,2.4-4.2,7.2-7.9,7.6c-1.8,0.2-5.4,0.2-6.1-3.5c-1.7-10.3,5.7-14.9,11.1-14.9
		C1193,1141.1,1195.1,1144.8,1193.1,1151.8z"/>
	<polygon class="st8" points="1140.8,1223.6 1140.8,1281.8 1198,1250.5 1198,1191.3 	"/>
	<path class="st8" d="M1021.9,1230.1v63.5c0,0,19.2,2.8,43.5,2.9c27.1,0.1,48.7-4.3,53.9-7.7l-0.2-60.8c0,0-17.6,2.2-39.5,4
		c-17,1.4-28.4,0.6-40.5,0C1032.3,1231.6,1021.9,1230.1,1021.9,1230.1z"/>
</g>
</svg>
