<svg width="23" height="24" viewBox="0 0 23 24" fill="none" xmlns="http://www.w3.org/2000/svg">
<path d="M19.4241 4.91938H18.8022V3.54653C18.8022 1.59171 17.1973 0 15.2263 0H7.71849C5.74749 0 4.14261 1.59171 4.14261 3.54653V4.91938H3.57588C1.60488 4.91938 0 6.51109 0 8.46591V14.1861C0 16.1409 1.60488 17.7326 3.57588 17.7326H4.13759V22.2292C4.13759 23.2041 4.94004 24 5.92303 24H17.0118C17.9948 24 18.7972 23.2041 18.7972 22.2292V17.7326H19.4241C21.3951 17.7326 23 16.1409 23 14.1861V8.46591C23 6.51109 21.3951 4.91938 19.4241 4.91938ZM5.49171 3.54653C5.49171 2.33285 6.48975 1.34301 7.71348 1.34301H15.2163C16.44 1.34301 17.4381 2.33285 17.4381 3.54653V4.91938H5.49171V3.54653ZM17.4431 22.2392C17.4431 22.473 17.2475 22.6669 17.0118 22.6669H5.92303C5.68731 22.6669 5.49171 22.473 5.49171 22.2392V14.8228H17.4431V22.2392ZM21.6459 14.1911C21.6459 15.4048 20.6478 16.3946 19.4241 16.3946H18.8022V14.8228H19.6949C20.0711 14.8228 20.372 14.5244 20.372 14.1513C20.372 13.7782 20.0711 13.4798 19.6949 13.4798H3.14457C2.76843 13.4798 2.46751 13.7782 2.46751 14.1513C2.46751 14.5244 2.76843 14.8228 3.14457 14.8228H4.14261V16.3946H3.57588C2.35216 16.3946 1.35412 15.4048 1.35412 14.1911V8.47088C1.35412 7.2572 2.35216 6.26736 3.57588 6.26736H19.4241C20.6478 6.26736 21.6459 7.2572 21.6459 8.47088V14.1911Z" fill="#36436B"/>
<path d="M0.677061 1.34301H9.2983C9.67444 1.34301 9.97536 1.04456 9.97536 0.671503C9.97536 0.298446 9.67444 0 9.2983 0H0.677061C0.300916 0 0 0.298446 0 0.671503C0 1.04456 0.305931 1.34301 0.677061 1.34301Z" transform="translate(6.45508 16.7826)" fill="#36436B"/>
<path d="M9.30332 0H0.677061C0.300916 0 0 0.298446 0 0.671503C0 1.04456 0.300916 1.34301 0.677061 1.34301H9.2983C9.67444 1.34301 9.97536 1.04456 9.97536 0.671503C9.97536 0.298446 9.67444 0 9.30332 0Z" transform="translate(6.50391 19.5283)" fill="#36436B"/>
<path d="M2.05124 0H0.677061C0.300916 0 0 0.298446 0 0.671503C0 1.04456 0.300916 1.34301 0.677061 1.34301H2.05124C2.42739 1.34301 2.7283 1.04456 2.7283 0.671503C2.7283 0.298446 2.42739 0 2.05124 0Z" transform="translate(17.3574 7.55566)" fill="#36436B"/>
</svg>
