<svg width="24" height="22" viewBox="0 0 24 22" fill="none" xmlns="http://www.w3.org/2000/svg">
<path d="M0.445583 13.7551C0.494548 13.77 0.54841 13.775 0.597375 13.775C0.807925 13.775 1.00868 13.6605 1.1213 13.4663C3.42266 9.34394 5.82196 9.06513 8.55911 9.04522V11.5147C8.55911 11.7437 8.68642 11.9528 8.88717 12.0573C9.08793 12.1619 9.32786 12.142 9.50903 12.0125L16.9909 6.54591C17.1476 6.4314 17.2406 6.24718 17.2406 6.04804C17.2406 5.84889 17.1476 5.66468 16.9909 5.55017L9.50903 0.113421C9.32786 -0.0210039 9.08793 -0.03594 8.88717 0.0686128C8.68642 0.173166 8.564 0.382271 8.564 0.611291V3.12056C5.12665 3.41928 2.68329 4.78345 1.30737 7.1782C0.137102 9.20951 0 11.5694 0 13.1676C0 13.4414 0.186068 13.6854 0.445583 13.7551ZM9.19076 4.30051C9.50903 4.28557 9.75875 4.01672 9.75875 3.69311V1.8012L15.6101 6.05799L9.75875 10.3297V8.43781C9.75875 8.2785 9.6951 8.11918 9.58248 8.00467C9.46986 7.89016 9.31807 7.82543 9.15648 7.82543C6.52216 7.82543 3.81438 7.82543 1.32696 10.967C1.75785 7.82045 3.41287 4.59425 9.19076 4.30051Z" fill="#6AB142"/>
<path d="M15.0341 1.21166H18.075V15.5151H1.19395V6.85128C1.19395 6.51635 0.925922 6.24545 0.59454 6.24545C0.263157 6.24545 0 6.52127 0 6.85128V16.1209C0 16.4559 0.26803 16.7268 0.599413 16.7268H18.6695C19.0009 16.7268 19.2689 16.4559 19.2689 16.1209V0.605828C19.2689 0.270899 19.0009 0 18.6695 0H15.0292C14.6978 0 14.4298 0.270899 14.4298 0.605828C14.4346 0.940758 14.7027 1.21166 15.0341 1.21166Z" transform="translate(4.73145 5.27344)" fill="#6AB142"/>
</svg>
