<svg width="82" height="82" viewBox="0 0 82 82" fill="none" xmlns="http://www.w3.org/2000/svg">
<path d="M34 17.2298C34 7.72925 26.3739 0 17.0001 0C7.62627 0 0 7.72925 0 17.2298C0 17.7942 0.451464 18.2517 1.0083 18.2517C1.56513 18.2517 2.0166 17.7941 2.0166 17.2298C2.0166 8.85622 8.73813 2.04392 17 2.04392C25.2619 2.04392 31.9834 8.85629 31.9834 17.2298C31.9834 25.6032 25.2619 32.4156 17 32.4156H15.2507L17.752 29.5778C18.1231 29.157 18.0871 28.5109 17.6718 28.1348C17.2566 27.7588 16.619 27.7953 16.2481 28.2162L12.6724 32.2727C12.0871 32.9368 12.0871 33.9383 12.6724 34.6024L16.2481 38.6589C16.4473 38.885 16.7232 39 17.0004 39C17.2394 39 17.4795 38.9142 17.6718 38.7403C18.0871 38.3642 18.1231 37.7181 17.752 37.2972L15.2507 34.4595H17C26.3739 34.4595 34 26.7302 34 17.2298Z" transform="translate(24 22)" fill="white"/>
<circle cx="41" cy="41" r="40" stroke="white" stroke-width="2"/>
</svg>
